<?xml version="1.0" encoding="utf-8"?>
<!-- Generator: Adobe Illustrator 24.1.0, SVG Export Plug-In . SVG Version: 6.00 Build 0)  -->
<svg version="1.1" id="Capa_1" xmlns="http://www.w3.org/2000/svg" xmlns:xlink="http://www.w3.org/1999/xlink" x="0px" y="0px"
	 viewBox="0 0 518 544" style="enable-background:new 0 0 518 544;" xml:space="preserve">
<style type="text/css">
	.st0{fill:#4EAD33;}
	.st1{fill:#235426;}
	.st2{fill:#00772C;}
	.st3{fill:#8F201D;}
	.st4{fill:#400900;}
	.st5{fill:#A91917;}
	.st6{fill:#6A140F;}
	.st7{fill:#981717;}
	.st8{fill:#881814;}
	.st9{fill:#861A1A;}
	.st10{fill:#E83F40;}
	.st11{fill:#BD1218;}
	.st12{fill:#FFFFFF;}
	.st13{fill:#AED5DE;}
	.st14{fill:#27273B;}
	.st15{clip-path:url(#SVGID_2_);}
	.st16{fill:#009DB9;}
	.st17{fill:#E31223;}
	.st18{clip-path:url(#SVGID_4_);}
	.st19{fill:#921B1B;}
	.st20{fill:none;}
	.st21{fill:#F6A000;}
	.st22{fill:#E1EDD1;}
	.st23{fill:#9AC31C;stroke:#4EAD33;stroke-width:2;stroke-miterlimit:10;}
	.st24{fill:#99C21E;}
	.st25{fill:#DBE8BD;}
	.st26{opacity:0.3;fill:#068839;}
	.st27{fill:#C5D585;}
	.st28{fill:#459034;}
	.st29{fill:#FDCE64;}
	.st30{fill:#589832;}
	.st31{fill:#EED592;}
	.st32{fill:#63A530;}
	.st33{fill:#161D1F;}
	.st34{fill:#A91314;}
	.st35{fill:#96C127;}
	.st36{clip-path:url(#SVGID_6_);}
	.st37{fill:#AE193A;}
	.st38{fill:#732614;}
	.st39{fill:#FBBE5B;}
	.st40{opacity:0.45;fill:#F6A000;}
	.st41{opacity:0.45;fill:#F08300;}
	.st42{opacity:0.5;fill:#F6A000;}
	.st43{fill:#C6BC31;}
	.st44{fill:#ABB03F;}
	.st45{fill:#ABB139;}
	.st46{fill:#B98F2B;}
	.st47{fill:#96962E;}
	.st48{fill:#9AC31C;}
	.st49{opacity:0.45;fill:#4EAD33;}
	.st50{opacity:0.45;fill:#00772C;}
	.st51{opacity:0.5;fill:#4EAD33;}
	.st52{fill:#EE7818;}
	.st53{fill:#D35F05;}
	.st54{clip-path:url(#SVGID_8_);}
	.st55{opacity:0.4;fill:#4EAD33;}
	.st56{fill:#0B1825;}
	.st57{fill:#112134;}
	.st58{fill:#E3A486;}
	.st59{fill:#D07D42;}
	.st60{fill:#F7D0BF;}
	.st61{fill:#F2B39E;}
	.st62{fill:#F19816;}
	.st63{fill:#EF8B02;}
	.st64{fill:#F1AD2C;}
	.st65{fill:#EE8B96;}
	.st66{fill:#1D1D1B;}
	.st67{fill:#232F3B;}
	.st68{fill:none;stroke:#F0AF25;stroke-miterlimit:10;}
	.st69{fill:#FFFFFF;stroke:#112134;stroke-linecap:round;stroke-linejoin:round;stroke-miterlimit:10;}
	.st70{fill:#F59906;}
	.st71{fill:#009EE2;}
	.st72{opacity:0.1;fill:#1F1F20;}
	.st73{fill:#F5F5F5;}
	.st74{fill:#F4EBBA;}
	.st75{fill:#EFD497;}
	.st76{fill:#F4D590;}
	.st77{fill:#F4CB6E;}
	.st78{fill:#F4BA45;}
	.st79{fill:#BDF1F4;}
	.st80{fill:#98F4F4;}
	.st81{fill:#62EDE9;}
	.st82{fill:#37E2D6;}
	.st83{fill:#17CEBC;}
	.st84{fill:#F4B0BE;}
	.st85{fill:#F48CA5;}
	.st86{fill:#EA688D;}
	.st87{fill:#E2477A;}
	.st88{fill:#D62766;}
	.st89{fill:#E6E6E6;}
	.st90{opacity:0.1;fill:#2A2B2D;}
	.st91{fill:#00C1C6;}
	.st92{fill:#1F1F20;}
	.st93{fill:#F9E7D0;}
	.st94{fill:#4CD4D7;}
	.st95{fill:none;stroke:#4CD4D7;stroke-width:2;stroke-linecap:round;stroke-linejoin:round;}
	.st96{clip-path:url(#SVGID_10_);}
	.st97{fill:#1ECAD3;}
	.st98{fill:#00AEEA;}
	.st99{fill:#050607;}
	.st100{fill:#E1E3E8;}
	.st101{fill:#E0E3E8;}
	.st102{fill:#CFEAF5;}
	.st103{fill:#96D4EC;}
	.st104{fill:#D0EAF5;}
	.st105{fill:#FAC87B;}
	.st106{fill:#FAC97C;}
	.st107{fill:#95D4EC;}
	.st108{fill:#0A0F10;}
	.st109{fill:#03090B;}
	.st110{clip-path:url(#SVGID_12_);}
	.st111{fill:#EB6376;}
	.st112{fill:#68BDEB;}
	.st113{fill:#F18776;}
	.st114{fill:#77C8D6;}
	.st115{fill:#F6AE28;}
	.st116{fill:#EFAA2D;}
	.st117{fill:#CDCBCB;}
	.st118{fill:#797979;}
	.st119{fill:#6E6E6E;}
	.st120{fill:#555454;}
	.st121{fill:#6F6F6F;}
	.st122{fill:#929292;}
	.st123{fill:#006FB9;}
	.st124{fill:#E7C82F;}
	.st125{fill:#E34B24;}
	.st126{fill:#7D79D9;}
	.st127{fill-rule:evenodd;clip-rule:evenodd;fill:#7D79D9;}
	.st128{clip-path:url(#SVGID_14_);}
	.st129{opacity:0.1;fill:#1F1F20;enable-background:new    ;}
	.st130{opacity:0.1;fill:#2A2B2D;enable-background:new    ;}
	.st131{fill:#EAEAEA;}
</style>
<g>
	<g>
		<circle class="st12" cx="240.04" cy="270.72" r="202.35"/>
		<path class="st56" d="M124.19,432.33C36.39,36.7,259.5,66.09,259.5,66.09s189.94-10.55,91.73,358.6L124.19,432.33z"/>
		<g>
			<path class="st57" d="M351.76,332.68C351.76,332.68,351.76,332.67,351.76,332.68C351.76,332.67,351.76,332.68,351.76,332.68"/>
			<polygon class="st57" points="326.33,348.1 326.32,348.1 326.32,348.09 			"/>
			<path class="st57" d="M326.36,348.15c-0.01-0.01-0.01-0.01-0.02-0.02C326.35,348.13,326.36,348.14,326.36,348.15"/>
			<path class="st57" d="M326.38,348.17c0-0.01-0.01-0.01-0.02-0.02C326.37,348.15,326.37,348.16,326.38,348.17"/>
			<path class="st58" d="M250.49,310.18c-1.45,0-3.01,0.05-4.77,0.15c-9.56,0.57-19.06,2.69-28.26,4.74l-0.36,0.07l-2.25,0.5
				l-2.25,0.49c-0.06-0.12-0.22-0.26-0.38-0.35c-0.2-0.13-0.45-0.2-0.71-0.2c-0.1,0-0.23,0.02-0.35,0.06
				c-0.35,0.09-0.66,0.33-0.84,0.65c-0.22,0.36-0.19,0.7-0.15,1.06l0.06,0.42c1,7.66,1.05,15.14,0.15,22.23l-0.02,0.18
				c-0.83,5.96-2.33,11.58-4.47,16.71c-1.89,4.42-4.26,8.5-7.04,12.13c-2.65,3.41-5.77,6.51-9.24,9.22
				c-1.63,1.24-3.36,2.41-5.17,3.49c-1.93,1.16-3.93,2.15-5.82,3.06l-4.48,2.15c-2.33,1.12-4.64,2.23-6.97,3.37
				c-7.09,3.45-14.66,7.28-21.86,11.88c-7.56,4.82-13.6,9.82-18.48,15.29c-2.74,3.08-5.16,6.37-7.19,9.77
				c-2.1,3.51-3.91,7.4-5.37,11.58c-0.92,2.62-1.73,5.61-2.5,9.12c-0.76,3.51-1.19,6.67-1.31,9.68l62.26,0.04h143.71h57.65
				c-0.09-2.89-0.5-6-1.25-9.52c-0.75-3.44-1.57-6.43-2.51-9.12c-1.49-4.23-3.3-8.12-5.38-11.58c-2.03-3.41-4.45-6.7-7.19-9.78
				c-4.88-5.47-10.93-10.47-18.48-15.29c-7.22-4.6-14.78-8.43-21.87-11.88c-2.32-1.14-4.63-2.25-6.95-3.37l-4.5-2.15
				c-1.89-0.92-3.9-1.91-5.81-3.06c-1.8-1.08-3.54-2.26-5.17-3.49c-3.47-2.7-6.58-5.8-9.25-9.22c-2.79-3.66-5.16-7.74-7.03-12.13
				c-2.14-5.14-3.64-10.75-4.46-16.69l-0.07-0.34c-0.88-7.02-0.82-14.45,0.19-22.1l0.04-0.28c0.06-0.51,0.09-0.84-0.14-1.21
				c-0.08-0.14-0.18-0.27-0.31-0.38c-0.08-0.32-0.32-0.6-0.63-0.77c-3.95-2.13-8.41-3.61-13.25-4.41
				C257.08,310.43,253.86,310.18,250.49,310.18"/>
			<path class="st59" d="M245.72,310.28c-9.61,0.59-19.09,2.7-28.26,4.74l-0.36,0.06l-2.26,0.5l-2.25,0.49
				c-0.02-0.1-0.17-0.25-0.35-0.33c-0.21-0.14-0.47-0.22-0.72-0.22c-0.11,0-0.23,0.03-0.37,0.08c-0.36,0.09-0.67,0.34-0.86,0.66
				c-0.22,0.36-0.2,0.71-0.16,1.07l0.06,0.42c1,7.67,1.05,15.15,0.15,22.24l-0.02,0.18c-0.5,3.59-1.25,7.07-2.23,10.39
				c1.13,0.54,2.28,1.06,3.44,1.55c0,0,0,0,0,0c0,0-0.01,0-0.01-0.01c0.01,0,0.01,0,0.01,0.01c3.23,1.35,6.53,2.5,9.9,3.41
				c3.33,0.91,6.72,1.59,10.13,2.06h-0.03c3.59,0.48,7.21,0.73,10.82,0.72c3.58-0.01,7.16-0.24,10.71-0.71h-0.02
				c3.46-0.47,6.9-1.16,10.26-2.08c3.37-0.92,6.66-2.06,9.88-3.4l-0.1,0.04c1.14-0.48,2.26-0.99,3.38-1.52
				c-0.97-3.28-1.7-6.7-2.18-10.24l-0.07-0.36c-0.88-7.02-0.81-14.44,0.19-22.09l0.04-0.28c0.06-0.52,0.09-0.86-0.14-1.21
				c-0.08-0.14-0.18-0.27-0.32-0.4c-0.08-0.31-0.32-0.6-0.63-0.77c-3.94-2.12-8.4-3.61-13.27-4.43c-3-0.48-6.22-0.73-9.59-0.73
				C249.07,310.14,247.51,310.19,245.72,310.28 M211.41,352.08c0.04,0.01,0.07,0.03,0.1,0.04
				C211.47,352.11,211.44,352.09,211.41,352.08"/>
			<path class="st60" d="M254.77,93.88c-10.24,0-20.54,0.9-30.6,2.68c-11.49,2.04-22.24,5.31-31.95,9.69
				c-4.96,2.22-9.72,4.84-14.16,7.8c-4.47,2.95-8.8,6.43-12.89,10.34c-7.42,7.08-13.51,15.42-18.1,24.78
				c-7.97,16.24-10.78,20.47-10.05,44.14c0.2,6.23,0.68,12.64,1.47,19.58c0.01,0.14,0.04,0.27,0.09,0.4
				c-2.03-0.56-4.13-0.84-6.21-0.84c-1.53,0-3.05,0.15-4.53,0.46c-0.98,0.21-2,0.52-3.05,0.93c-1.24,0.48-2.31,1.12-3.11,1.63
				c-1.47,0.92-2.86,2.17-4.12,3.71c-2.02,2.46-3.39,5.75-3.96,9.52c-0.22,1.56-0.29,3.28-0.2,5.41c0.08,1.66,0.32,3.44,0.73,5.44
				c0.76,3.58,2.01,7.15,3.72,10.61c1.6,3.27,3.48,6.19,5.6,8.67c1.23,1.43,2.69,2.86,4.6,4.5c1.76,1.49,3.69,2.9,5.73,4.18
				c3.94,2.48,8.18,4.39,12.61,5.67c2.24,0.65,4.51,1.12,6.74,1.4c0.42,0.06,0.84,0.1,1.26,0.14c3.24,9.76,8.07,18.86,14.36,27.01
				c6.76,8.77,14.98,16.21,24.43,22.11c9.19,5.76,19.34,9.79,30.18,12c5.17,1.05,10.55,1.65,15.99,1.8
				c0.76,0.02,1.52,0.03,2.28,0.03c4.42,0,9.01-0.34,13.66-1.02c10.91-1.59,21.44-5.19,31.29-10.7c9.62-5.36,18.51-12.74,25.7-21.33
				c4.27-5.11,7.99-10.7,11.06-16.59l0.1-0.18l0.1-0.19c0.27-0.53,0.52-1.04,0.77-1.56l0.13-0.24l0.13-0.26
				c0.77-1.61,1.48-3.19,2.15-4.82l0.2-0.47l0.09-0.22l0.12-0.29l0.14-0.36l0.1-0.24l0.11-0.29l0.07-0.18
				c0.52-1.37,1-2.71,1.46-4.06l0.1-0.28l0.08-0.25l0.15-0.46l0.09-0.3l0.13-0.42l0.11-0.34l0.08-0.28l0.08-0.27
				c0.58-0.08,1.19-0.16,1.78-0.23l0.68-0.08c2.23-0.28,4.5-0.75,6.74-1.4c4.43-1.28,8.67-3.19,12.61-5.67
				c2.04-1.28,3.97-2.69,5.73-4.18c1.91-1.64,3.37-3.07,4.6-4.5c2.1-2.45,3.98-5.37,5.6-8.67c1.71-3.46,2.96-7.03,3.72-10.61
				c0.41-2,0.65-3.78,0.73-5.44c0.09-2.13,0.03-3.84-0.2-5.4c-0.57-3.78-1.94-7.07-3.96-9.53c-1.26-1.54-2.65-2.79-4.12-3.71
				c-0.8-0.51-1.87-1.15-3.11-1.63c-1.05-0.41-2.08-0.72-3.05-0.93c-1.48-0.3-3-0.45-4.53-0.45c-2.81,0-5.76,0.49-8.76,1.46
				c-0.64,0.21-1.27,0.44-1.89,0.67c2.6-10.99,4.01-22.85,4.22-35.23c0.09-6.31-0.17-12.64-0.76-18.81
				c-0.59-5.84-1.44-10.96-2.61-15.66c-2.31-9.32-6.82-2.95-11.98-10.97c-5.08-7.89-11.37-14.75-18.71-20.4
				c-7.42-5.7-15.77-10.01-24.84-12.82c-4.43-1.37-9.27-2.38-14.38-3.02c-2.72-0.33-5.43-0.51-7.76-0.66
				c-2.66-0.16-5.3-0.26-8.07-0.3"/>
			<path class="st61" d="M147.2,260.24c-0.82-0.7-1.56-1.47-2.23-2.32l0.03,0.04c-1.13-1.48-2.02-3.1-2.75-4.82
				c-0.95-2.32-1.57-4.74-1.93-7.22c-0.34-2.64-0.38-5.31-0.04-7.96c0.27-1.78,0.71-3.53,1.4-5.19c0.23-0.5,0.48-0.99,0.74-1.47
				c0.04-0.08,0.05-0.17,0.08-0.26c0.25-0.4,0.27-0.92,0.02-1.36c-0.22-0.39-0.43-0.78-0.69-1.14c-0.35-0.47-0.74-0.91-1.16-1.3
				c-0.78-0.76-1.7-1.39-2.65-1.94c-0.98-0.57-2.03-1.01-3.09-1.4c-1.13-0.41-2.31-0.74-3.5-0.96c-1.12-0.2-2.25-0.29-3.38-0.34
				c-0.22-0.01-0.44-0.02-0.66-0.02c-0.88,0-1.76,0.08-2.62,0.21c-2.01,0.32-3.96,0.95-5.63,2.13c-0.2,0.14-0.29,0.39-0.15,0.62
				c0.12,0.2,0.41,0.29,0.62,0.15c0.46-0.32,0.94-0.58,1.45-0.81c0.78-0.32,1.58-0.55,2.41-0.7c1.36-0.2,2.72-0.19,4.08-0.06
				c0.87,0.1,1.72,0.25,2.56,0.47c0.84,0.21,1.68,0.46,2.49,0.76c1.45,0.58,2.84,1.3,4.13,2.19c0.71,0.52,1.38,1.08,2.02,1.69
				c0.32,0.31,0.59,0.65,0.88,0.98c-1.14,2.34-1.68,4.91-1.91,7.5c-0.13,1.4-0.11,2.81-0.02,4.2c0.1,1.54,0.32,3.07,0.62,4.58
				c0.58,2.86,1.55,5.66,2.89,8.26c1.24,2.43,2.91,4.7,4.99,6.46c0.29,0.25,0.7,0.29,0.99,0
				C147.45,260.97,147.49,260.49,147.2,260.24z"/>
			<path class="st61" d="M362.15,221.5c-1.68-1.18-3.63-1.81-5.63-2.13c-0.86-0.13-1.75-0.21-2.62-0.21c-0.22,0-0.44,0-0.66,0.01
				c-1.13,0.05-2.26,0.13-3.38,0.34c-1.19,0.22-2.37,0.55-3.5,0.96c-1.07,0.39-2.11,0.83-3.09,1.4c-0.95,0.55-1.86,1.18-2.65,1.94
				c-0.42,0.4-0.81,0.84-1.16,1.3c-0.27,0.36-0.48,0.74-0.69,1.14c-0.25,0.43-0.23,0.96,0.02,1.36c0.03,0.09,0.04,0.17,0.08,0.26
				c0.26,0.48,0.52,0.97,0.74,1.47c0.68,1.66,1.13,3.41,1.4,5.19c0.35,2.65,0.31,5.32-0.04,7.96c-0.35,2.48-0.98,4.9-1.93,7.22
				c-0.73,1.72-1.62,3.34-2.75,4.82l0.03-0.04c-0.67,0.84-1.41,1.62-2.23,2.32c-0.29,0.25-0.25,0.73,0,0.98
				c0.29,0.29,0.7,0.25,0.99,0c2.08-1.76,3.75-4.03,4.99-6.46c1.34-2.6,2.31-5.4,2.89-8.26c0.3-1.51,0.52-3.05,0.62-4.58
				c0.08-1.4,0.1-2.81-0.02-4.2c-0.23-2.58-0.77-5.15-1.91-7.49c0.29-0.33,0.56-0.68,0.88-0.98c0.63-0.62,1.31-1.17,2.02-1.69
				c1.29-0.89,2.68-1.61,4.13-2.19c0.81-0.29,1.65-0.55,2.49-0.76c0.85-0.22,1.7-0.36,2.56-0.47c1.36-0.13,2.72-0.14,4.08,0.06
				c0.83,0.14,1.63,0.38,2.41,0.7c0.51,0.23,0.99,0.49,1.45,0.81c0.2,0.14,0.5,0.05,0.62-0.15
				C362.44,221.89,362.36,221.64,362.15,221.5z"/>
			<path class="st62" d="M157.58,395.1c-4.1,2.16-8.24,4.49-12.3,7.07"/>
			<path class="st62" d="M208.67,424.46c-5.2-1.93-10.33-4.1-15.31-6.52"/>
			<path class="st62" d="M308.43,384.01c0.01,0.01,0.01,0.01,0.02,0.01l-0.01-0.01C308.44,384.02,308.43,384.01,308.43,384.01
				C308.43,384.01,308.43,384.01,308.43,384.01"/>
			<path class="st62" d="M308.43,384.01c0.01,0.01,0.01,0.01,0.02,0.01l-0.01-0.01C308.44,384.02,308.43,384.01,308.43,384.01
				C308.43,384.01,308.43,384.01,308.43,384.01"/>
			<path class="st63" d="M157.63,395.05c0,0-0.03-0.01-0.04-0.01"/>
			<path class="st56" d="M153.38,110.28c-5.94,6.34-11.02,13.48-15.24,21.07c-1.12,2.01-2.17,4.06-3.18,6.12
				c-1.02,2.06-1.99,4.15-2.88,6.28c-0.9,2.15-1.77,4.32-2.55,6.52c-0.77,2.19-1.45,4.41-2.06,6.66c-1.75,6.38-2.84,12.97-3,19.59
				c-0.07,3.19,0.08,6.39,0.5,9.56c0.22,1.63,0.49,3.26,0.87,4.87c0.18,0.77,0.39,1.52,0.6,2.27c0.25,0.84,0.56,1.66,0.86,2.47
				c0.14,0.38,0.33,0.69,0.69,0.9c0.34,0.2,0.76,0.25,1.15,0.15c0.81-0.22,1.23-1.05,1.04-1.84c-0.15-0.67-0.28-1.36-0.43-2.05
				c-0.16-0.77-0.32-1.54-0.46-2.31c-0.28-1.48-0.51-2.95-0.72-4.43c-0.44-3.45-0.65-6.92-0.62-10.4c0.03-3.61,0.31-7.21,0.79-10.79
				c0.29-2.08,0.63-4.15,1.05-6.2c0.44-2.18,0.99-4.34,1.58-6.5c0.58-2.16,1.22-4.29,1.95-6.4c0.74-2.13,1.54-4.25,2.41-6.35
				c0,0.01-0.01,0.02-0.01,0.03c1.72-4.06,3.73-7.99,5.94-11.8c2.18-3.74,4.58-7.34,7.23-10.76c-0.03,0.04-0.05,0.06-0.08,0.1
				c1.64-2.12,3.37-4.17,5.2-6.13c0.17-0.18,0.18-0.46,0-0.64c-0.09-0.08-0.2-0.13-0.32-0.13
				C153.58,110.15,153.46,110.2,153.38,110.28 M128.71,165.15c-0.01,0.04-0.01,0.09-0.02,0.13
				C128.7,165.24,128.7,165.2,128.71,165.15"/>
			<path class="st56" d="M336.52,122.19c-0.2,0.11-0.3,0.41-0.16,0.61c2.74,3.84,4.89,8.07,6.73,12.42
				c-0.02-0.04-0.03-0.08-0.04-0.12c1.67,4.02,3.04,8.17,4.15,12.38c1.14,4.34,2.02,8.74,2.63,13.18c-0.01-0.06-0.02-0.12-0.03-0.18
				c1.05,7.87,1.38,15.84,0.35,23.73c-0.22,1.51-0.48,3.01-0.79,4.51c-0.15,0.73-0.32,1.46-0.51,2.18
				c-0.19,0.78-0.39,1.56-0.64,2.32c-0.27,0.83,0.32,1.75,1.12,1.97c0.41,0.11,0.86,0.06,1.23-0.16c0.38-0.22,0.6-0.56,0.74-0.96
				c0.28-0.83,0.58-1.65,0.83-2.5c0.27-0.94,0.5-1.89,0.71-2.84c0.42-1.99,0.69-4.01,0.88-6.03c0.39-4.16,0.33-8.37,0-12.54
				c-0.35-4.43-1.05-8.83-1.99-13.17c-0.47-2.17-1.03-4.33-1.64-6.46c-0.6-2.12-1.27-4.22-2.01-6.3
				c-2.74-7.7-6.17-15.22-10.94-21.89c-0.1-0.14-0.24-0.22-0.39-0.22C336.67,122.13,336.59,122.15,336.52,122.19"/>
			<path class="st56" d="M334.79,155.66c-0.23,0.13-0.26,0.39-0.16,0.61c0.03,0.06,0.05,0.12,0.08,0.18
				c-0.01-0.01-0.01-0.03-0.02-0.04c0.8,1.92,1.43,3.89,1.95,5.91c0.53,2.1,0.89,4.24,1.19,6.38c-0.01-0.06-0.01-0.12-0.02-0.17
				c0.9,6.8,0.81,13.72-0.09,20.52c-0.12,0.88-0.26,1.75-0.39,2.63c-0.05,0.28-0.05,0.52,0.1,0.77c0.13,0.22,0.34,0.39,0.6,0.46
				c0.26,0.07,0.53,0.04,0.77-0.1c0.2-0.12,0.42-0.36,0.46-0.6c0.51-2.99,0.77-6.01,0.87-9.04c0.11-3.19-0.02-6.39-0.32-9.57
				c-0.57-6.1-1.98-12.15-4.38-17.78c-0.06-0.15-0.23-0.22-0.38-0.22C334.94,155.6,334.86,155.62,334.79,155.66 M337.73,188.95
				c0,0.03-0.01,0.05-0.01,0.08C337.72,189,337.72,188.98,337.73,188.95"/>
			<path class="st56" d="M330.21,171.12c-0.25,0.07-0.36,0.32-0.32,0.55c0.21,1.13,0.4,2.26,0.55,3.41c0-0.01,0-0.02,0-0.03
				c0.26,2.02,0.45,4.03,0.53,6.06c0.07,2.06-0.03,4.12-0.29,6.16v-0.01c-0.17,1.19-0.4,2.36-0.68,3.53
				c-0.11,0.43,0.13,0.89,0.57,1.01c0.42,0.11,0.92-0.13,1.02-0.58c0.32-1.53,0.54-3.08,0.64-4.64c0.11-1.71,0.08-3.43-0.01-5.14
				c-0.19-3.37-0.81-6.7-1.45-10.01c-0.04-0.2-0.25-0.33-0.44-0.33C330.28,171.11,330.24,171.11,330.21,171.12"/>
			<path class="st56" d="M207.82,80.34c-1.78,0.71-3.54,1.47-5.26,2.31c-1.77,0.85-3.49,1.79-5.17,2.79c-3.38,2-6.59,4.27-9.65,6.72
				c-1.56,1.25-3.07,2.55-4.54,3.92c-1.47,1.38-2.9,2.8-4.29,4.26c-2.83,2.96-5.42,6.12-7.89,9.38c-1.24,1.64-2.45,3.32-3.61,5.03
				c-1.16,1.72-2.24,3.49-3.3,5.27c-2.12,3.58-4.1,7.25-5.87,11.01c-3.51,7.51-6.26,15.39-8.26,23.44
				c-1.19,4.77-2.08,9.62-2.66,14.51c-0.28,2.36-0.48,4.74-0.6,7.12c-0.06,1.12-0.09,2.25-0.1,3.38c0,0.59,0.01,1.19,0.02,1.78
				c0.02,0.59,0.07,1.18,0.08,1.77c0.03,0.75,0.61,1.38,1.38,1.38c0.76,0,1.36-0.62,1.37-1.38c0.01-0.52,0.05-1.03,0.07-1.55
				c0.03-0.59,0.06-1.19,0.09-1.78c0.06-1.2,0.13-2.4,0.21-3.6c0.18-2.46,0.43-4.91,0.75-7.35c0,0.05-0.01,0.09-0.01,0.14
				c0.79-5.76,1.95-11.47,3.47-17.09c1.62-5.98,3.65-11.84,6.05-17.54c-0.05,0.12-0.1,0.24-0.15,0.36c1.04-2.46,2.12-4.9,3.28-7.31
				c1.16-2.4,2.41-4.75,3.73-7.07c1.32-2.29,2.71-4.55,4.15-6.77c1.47-2.28,3.06-4.47,4.71-6.61c-0.06,0.07-0.1,0.14-0.16,0.2
				c2.34-3.02,4.83-5.91,7.5-8.64c2.67-2.73,5.51-5.32,8.52-7.66l-0.13,0.11c4.78-3.69,9.96-6.89,15.53-9.25l-0.11,0.04
				c0.36-0.15,0.72-0.3,1.08-0.45c0.23-0.09,0.38-0.29,0.31-0.55c-0.04-0.18-0.24-0.34-0.43-0.34
				C207.91,80.32,207.87,80.32,207.82,80.34 M150.56,169.18c0.02-0.1,0.03-0.2,0.04-0.3L150.56,169.18z"/>
			<path class="st56" d="M169.33,135.37c-1,1.65-1.95,3.33-2.83,5.04c-0.92,1.77-1.75,3.59-2.52,5.44c-0.79,1.91-1.48,3.85-2.1,5.82
				c-0.62,1.94-1.11,3.92-1.46,5.92c-0.03,0.2-0.03,0.39,0.08,0.57c0.1,0.17,0.26,0.29,0.44,0.35c0.2,0.06,0.41,0.03,0.58-0.08
				c0.15-0.09,0.31-0.26,0.34-0.44c0.41-2.33,0.92-4.63,1.56-6.91c0.68-2.4,1.56-4.74,2.53-7.04c-0.01,0.01-0.01,0.02-0.01,0.03
				c1.21-2.83,2.59-5.59,4.18-8.24c0.13-0.21,0.05-0.49-0.16-0.62c-0.07-0.04-0.15-0.06-0.22-0.06
				C169.56,135.15,169.41,135.23,169.33,135.37"/>
			<path class="st64" d="M146.07,277.15c2.67,0,4.84-2.17,4.84-4.84c0-2.67-2.17-4.84-4.84-4.84c-2.67,0-4.84,2.17-4.84,4.84
				C141.23,274.98,143.4,277.15,146.07,277.15"/>
			<path class="st64" d="M337.27,274.88c2.67,0,4.84-2.17,4.84-4.84c0-2.67-2.17-4.84-4.84-4.84c-2.67,0-4.84,2.17-4.84,4.84
				C332.43,272.71,334.6,274.88,337.27,274.88"/>
			<path class="st61" d="M240.41,210.07c-0.28,0-0.49,0.22-0.52,0.52c-0.01,0.17-0.04,0.35-0.06,0.52c-0.11,0.8-0.33,1.77-0.68,2.96
				c-0.31,1.03-0.71,2.21-1.26,3.69c-0.78,2.08-1.61,4.12-2.45,6.17l-0.95,2.36c-1.19,2.98-2.34,5.9-3.21,8.92
				c-0.58,2.01-1.35,5.04-1.32,8.13c0.02,1.31,0.23,2.52,0.62,3.58c0.4,1.13,1.04,2.15,1.88,3.02c0.83,0.83,1.93,1.51,3.35,2.06
				c0.61,0.23,1.3,0.42,2.11,0.57c0.91,0.17,1.94,0.28,3.05,0.32c0.75,0,1.39-0.64,1.39-1.39c0-0.76-0.63-1.39-1.37-1.39l-0.37,0.01
				c-0.74,0-1.45-0.04-2.13-0.13c-1-0.13-1.87-0.35-2.68-0.67c-0.55-0.25-1.04-0.53-1.49-0.85c-0.38-0.33-0.7-0.64-0.95-0.96
				c-0.29-0.4-0.55-0.85-0.78-1.35c-0.26-0.68-0.45-1.41-0.57-2.23c-0.16-1.34-0.14-2.74,0.07-4.39c0.37-2.76,1.11-5.42,1.79-7.66
				c0.88-2.9,1.99-5.79,2.88-8.12l0.63-1.63c0.74-1.92,1.47-3.84,2.14-5.77c0.63-1.82,1.25-3.77,1.42-5.77
				c0.01-0.13-0.04-0.24-0.13-0.34C240.7,210.14,240.55,210.07,240.41,210.07"/>
			<path class="st65" d="M255.34,283.85c-0.01,0-0.01,0-0.01-0.01C255.33,283.85,255.33,283.85,255.34,283.85"/>
			<path class="st65" d="M255.43,283.89c-0.01-0.01-0.02-0.01-0.03-0.01C255.41,283.88,255.42,283.89,255.43,283.89"/>
			<path class="st65" d="M260.61,286.86l0.02,0.02C260.62,286.87,260.61,286.86,260.61,286.86
				C260.6,286.86,260.61,286.86,260.61,286.86"/>
			<path class="st65" d="M260.65,286.9c0,0,0.01,0.01,0.01,0.01c-0.01-0.01-0.02-0.02-0.04-0.03
				C260.64,286.89,260.64,286.89,260.65,286.9"/>
			<path class="st56" d="M272.33,85.39c0,0-24.62,83.47-135.8,128.18C136.53,213.57,107.15,68.35,272.33,85.39z"/>
			<path class="st56" d="M265.61,90.32c0,0,18.32,37.53,74.85,123.25C340.45,213.57,384.46,95.12,265.61,90.32z"/>
			<path class="st12" d="M132.36,212.46c-4.15-7.08,23.44-119.9,134.72-121.37c0.41,0.04,102.17,30.22,73.37,122.48l9.41-4.03
				c0,0,21.96-102.63-82.08-123.85c0,0-128.12-11.5-146.11,129.78L132.36,212.46z"/>
			<g>
				<g>
					<path class="st66" d="M183.73,266.12c-9.15,0-17.91-2.27-23.04-7.4c-10.05-10.05-9.57-34.16-9.54-35.18
						c0.02-0.68,0.59-1.21,1.25-1.19c0.68,0.02,1.21,0.58,1.19,1.25c-0.01,0.24-0.48,24.08,8.82,33.38
						c9.17,9.17,32.44,8.23,45.05,1.03c10.22-5.84,17.18-20.73,17.25-20.87c0.28-0.61,1.01-0.88,1.62-0.6
						c0.61,0.28,0.88,1.01,0.6,1.62c-0.29,0.64-7.35,15.74-18.26,21.98C202.04,263.94,192.7,266.12,183.73,266.12z"/>
				</g>
				<g>
					<path class="st66" d="M338.18,210.31l-1.75-6.56c-0.16-0.61-0.65-1.07-1.26-1.2c-3.8-0.81-17.56-3.72-25.93-5.3
						c-9.79-1.84-33.06-1.84-44.69,3.06c-10.27,4.32-20.53,4.35-22.8,4.3l0-0.02c0,0-0.08,0-0.23,0.01c-0.15,0-0.23-0.01-0.23-0.01
						l0,0.02c-2.27,0.05-12.53,0.02-22.8-4.3c-11.63-4.9-34.89-4.9-44.69-3.06c-8.25,1.55-21.71,4.4-25.75,5.26
						c-0.73,0.15-1.3,0.7-1.5,1.42l-1.63,6.12c-0.26,0.97,0.25,1.97,1.17,2.34c4.83,1.95,4.95,8.78,4.68,12.23
						c-0.08,0.97,0.61,1.88,1.58,2c1.01,0.13,1.9-0.58,2.04-1.56c0.37-2.68,1.42-8.37,4.1-13.73c3.67-7.35,18.36-11.02,36.73-11.02
						s29.38,9.18,31.83,17.75c1.88,6.59-2.02,16.06-3.93,20.1c-0.8,1.7,0.68,3.66,2.51,3.22c0.07-0.02,0.13-0.03,0.2-0.06
						c1.84-0.61,7.68-22.12,9.52-27.02c1.84-4.9,4.76-4.5,6.81-4.51c1.92-0.01,4.36-0.38,6.2,4.51c1.84,4.9,7.01,26.4,8.85,27.02
						c0.07,0.02,0.13,0.04,0.2,0.06c1.82,0.44,3.31-1.52,2.51-3.22c-1.91-4.04-5.81-13.51-3.93-20.1
						c2.45-8.57,13.47-17.75,31.83-17.75c18.36,0,33.06,3.67,36.73,11.02c2.68,5.36,3.73,11.05,4.1,13.73
						c0.13,0.9,0.89,1.58,1.8,1.58l0,0c1.06,0,1.9-0.9,1.81-1.96c-0.28-3.47-0.18-10.51,4.87-12.36
						C337.95,212.01,338.41,211.15,338.18,210.31z"/>
				</g>
				<g>
					<path class="st66" d="M299.3,266.12c-8.97,0-18.31-2.18-24.96-5.98c-10.91-6.24-17.96-21.34-18.26-21.98
						c-0.28-0.61-0.01-1.34,0.6-1.62c0.61-0.28,1.34-0.01,1.62,0.6c0.07,0.15,7.02,15.03,17.25,20.87
						c12.61,7.21,35.88,8.15,45.05-1.03c9.32-9.32,8.83-33.14,8.82-33.38c-0.02-0.68,0.52-1.24,1.19-1.25c0.01,0,0.02,0,0.03,0
						c0.66,0,1.21,0.53,1.22,1.19c0.03,1.02,0.51,25.13-9.54,35.18C317.21,263.86,308.45,266.12,299.3,266.12z"/>
				</g>
			</g>
			<g>
				<path class="st67" d="M120.66,272c0.86,10.35,1.82,20.68,3.01,30.99c1.18,10.31,2.52,20.6,4.12,30.84
					c0.76,5.13,1.6,10.25,2.47,15.36c0.88,5.11,1.85,10.2,2.78,15.31c0.91,5.11,1.75,10.26,2.03,15.46
					c0.24,5.19-0.08,10.46-1.49,15.47c1.19-5.06,1.4-10.29,1-15.44c-0.38-5.16-1.29-10.27-2.3-15.35
					c-2.06-10.17-3.88-20.41-5.48-30.67c-1.52-10.28-2.88-20.58-3.89-30.91c-0.52-5.17-0.95-10.34-1.35-15.52
					C121.2,282.37,120.88,277.19,120.66,272z"/>
			</g>
			<g>
				<path class="st67" d="M140.87,287.53c0.87,0.48,1.52,1.32,1.86,2.26c0.36,0.94,0.49,1.95,0.56,2.94c0.09,2,0.01,3.97,0.11,5.95
					c0.11,3.95,0.43,7.9,0.97,11.81c1.03,7.84,3.08,15.49,5.27,23.1c2.1,7.63,4.3,15.31,5.23,23.24c0.46,3.96,0.62,7.95,0.35,11.93
					c-0.16,1.99-0.43,3.96-0.81,5.91c-0.4,1.95-0.94,3.86-1.61,5.73c0.56-1.9,1.01-3.83,1.35-5.78c0.3-1.95,0.5-3.92,0.58-5.89
					c0.17-3.94-0.08-7.89-0.62-11.8c-1.07-7.83-3.25-15.45-5.43-23.07c-2.11-7.63-4.2-15.35-5.07-23.28
					c-0.45-3.95-0.69-7.93-0.7-11.9c-0.02-1.98,0.13-3.98,0.12-5.94c-0.03-0.98-0.12-1.97-0.44-2.9
					C142.3,288.92,141.72,288.06,140.87,287.53z"/>
			</g>
			<g>
				<path class="st67" d="M171.33,327.49c-0.27,4.51,0.07,9.01,0.91,13.41c0.43,2.2,0.93,4.38,1.55,6.54
					c0.61,2.16,1.35,4.27,2.04,6.43c0.66,2.16,1.26,4.38,1.52,6.67c0.26,2.28,0.19,4.63-0.36,6.86c-0.51,2.24-1.4,4.38-2.59,6.33
					c-1.21,1.93-2.73,3.67-4.51,5.06c1.63-1.56,3.04-3.33,4.09-5.31c1.08-1.95,1.86-4.06,2.26-6.24c0.41-2.18,0.5-4.4,0.21-6.59
					c-0.29-2.19-0.89-4.35-1.57-6.48c-1.36-4.27-2.75-8.65-3.4-13.14c-0.33-2.24-0.56-4.51-0.6-6.77
					C170.87,331.99,170.98,329.72,171.33,327.49z"/>
			</g>
			<g>
				<path class="st67" d="M198.82,336.45c0.11,1.65-0.13,3.32-0.5,4.94c-0.41,1.61-0.99,3.18-1.6,4.71
					c-1.23,3.07-2.71,6.02-3.55,9.14c-0.86,3.12-1.13,6.43-2.01,9.66c-0.44,1.61-1.03,3.19-1.87,4.65
					c-0.86,1.43-1.97,2.75-3.37,3.64c1.26-1.07,2.24-2.41,2.94-3.87c0.73-1.45,1.22-3.01,1.56-4.6c0.69-3.18,0.92-6.48,1.79-9.74
					c0.91-3.25,2.43-6.21,3.82-9.18c0.7-1.48,1.34-2.99,1.84-4.54C198.37,339.71,198.7,338.1,198.82,336.45z"/>
			</g>
			<g>
				<path class="st67" d="M290.72,330.19c-0.86,2.96-1.13,6.06-0.86,9.1c0.24,3.05,0.94,6.04,1.94,8.93
					c1.99,5.78,4.9,11.22,7.94,16.55c1.51,2.67,3.12,5.27,4.97,7.7c1.85,2.43,3.96,4.64,6.26,6.65c2.3,2.01,4.82,3.77,7.5,5.25
					c2.66,1.52,5.5,2.71,8.43,3.67c-2.99-0.74-5.9-1.85-8.66-3.24c-2.75-1.41-5.36-3.12-7.76-5.1c-2.42-1.95-4.56-4.24-6.48-6.68
					c-1.91-2.46-3.57-5.08-5.12-7.76c-2.99-5.39-5.93-10.88-7.8-16.81c-0.93-2.96-1.56-6.03-1.7-9.13
					C289.26,336.22,289.64,333.08,290.72,330.19z"/>
			</g>
			<g>
				<path class="st67" d="M305.02,319.48c-0.32,7.03,1.29,14,4,20.41c2.72,6.43,6.41,12.42,10.63,17.99
					c4.16,5.63,8.79,10.9,13.24,16.34c2.22,2.72,4.42,5.47,6.51,8.3c2.06,2.85,4.05,5.75,5.8,8.8c-1.94-2.93-4-5.77-6.19-8.51
					c-2.16-2.76-4.42-5.44-6.71-8.1c-4.57-5.32-9.2-10.61-13.45-16.23c-4.18-5.67-7.93-11.72-10.53-18.3
					c-1.29-3.29-2.3-6.69-2.9-10.17C304.84,326.53,304.65,322.98,305.02,319.48z"/>
			</g>
			<g>
				<path class="st67" d="M336.22,281.48c-2.61,7.59-3.2,15.71-2.54,23.63c0.66,7.95,2.41,15.77,4.67,23.43
					c2.19,7.69,4.81,15.26,6.95,22.99c1.06,3.87,2.03,7.77,2.77,11.71c0.71,3.95,1.24,7.94,1.38,11.94
					c-0.37-3.99-0.99-7.94-1.86-11.84c-0.84-3.91-1.88-7.77-3.03-11.6c-2.29-7.66-4.9-15.23-7.17-22.93
					c-2.19-7.71-3.98-15.61-4.48-23.65c-0.24-4.02-0.18-8.06,0.33-12.05C333.78,289.14,334.72,285.2,336.22,281.48z"/>
			</g>
			<g>
				<path class="st67" d="M361.44,279.74c0.52,3.23,0.31,6.54-0.11,9.77c-0.46,3.24-1.17,6.43-1.69,9.63
					c-1.12,6.4-1.96,12.86-2.44,19.34c-0.57,6.47-0.71,12.98-0.64,19.48c0.05,3.25,0.15,6.5,0.37,9.75
					c0.15,3.25,0.48,6.49,0.76,9.74c-1.03-6.44-1.66-12.94-1.9-19.47c-0.23-6.52-0.08-13.06,0.41-19.58c0.56-6.51,1.39-13,2.68-19.4
					c0.62-3.21,1.41-6.37,1.96-9.57C361.43,286.25,361.73,283,361.44,279.74z"/>
			</g>
			<path class="st64" d="M110.42,457.64c0.12-2.98,0.55-6.15,1.31-9.68c0.78-3.56,1.6-6.54,2.5-9.13c1.48-4.22,3.29-8.11,5.37-11.58
				c2.03-3.41,4.45-6.71,7.2-9.78c4.88-5.48,10.93-10.48,18.49-15.3"/>
			<path class="st68" d="M288.32,372.83c0,14.21-15.82,29.74-48.15,29.74s-47.21-12.7-47.21-26.91"/>
			<polygon class="st66" points="146.56,203.93 132.36,212.46 138.49,212.9 144.93,210.05 			"/>
			<polygon class="st56" points="338.18,210.31 344.32,211.1 348.44,210.06 336.43,203.75 			"/>
			<circle cx="189.58" cy="227.99" r="7.56"/>
			<path class="st66" d="M209.23,230.22c0,0-19.4-20.27-39.67,0l-2.61-7.17c-0.01-0.01,0-0.04,0.02-0.03l4.68,3.07
				C171.64,226.08,190.11,208.21,209.23,230.22z"/>
			<circle cx="291.51" cy="227.99" r="7.56"/>
			<path class="st66" d="M271.87,230.22c0,0,19.4-20.27,39.67,0l2.61-7.17c0.01-0.01,0-0.04-0.02-0.03l-4.68,3.07
				C309.45,226.08,290.98,208.21,271.87,230.22z"/>
			<path class="st69" d="M204.94,280.02c0,15.73,16.92,28.48,37.78,28.48s37.78-12.75,37.78-28.48H204.94z"/>
			<path class="st64" d="M110.34,457.64c0,0,117.11,77.31,263.75,0.08c2.53-1.33-0.45-5.98-1.22-9.57
				c-0.75-3.43-1.58-6.42-2.51-9.13c-1.49-4.22-3.29-8.12-5.37-11.58c-2.02-3.39-4.75-6.43-7.2-9.78
				c-7.17-9.8-31.23-22.62-31.23-22.62c-76,48.17-168.97,0-168.97,0"/>
			<path class="st70" d="M174.55,402.1c-5.19-0.47-11.71,7.24-11.71,7.24c-6.23,6.84-11.52,14.43-15.74,22.56
				c-4.1,7.9-7,16.11-8.61,24.41l-0.08,0.44c-0.06,0.32-1.62,11.48-0.41,14.86c-9.66-3.79-18.93-8.36-27.66-13.97
				c0.12-2.97,0.55-6.14,1.31-9.71c0.78-3.54,1.6-6.53,2.52-9.13c1.46-4.18,3.27-8.08,5.38-11.59c2.05-3.46,4.48-6.75,7.21-9.8
				c4.87-5.46,10.92-10.47,18.5-15.31l12.34-7.06L174.55,402.1z"/>
			<g>
				<path class="st64" d="M232.01,47.2l-31.27-11.96l-0.55-4.85l27.8-18.74l0.9,7.92l-19.06,12.12l21.29,7.62L232.01,47.2z"/>
				<path class="st64" d="M256.39,3.93l-9.85,48.53l-7.88,0.82l10.04-48.9L256.39,3.93z"/>
				<path class="st64" d="M265.58,36.19l17.27-10.47l-19.43-8.63l-0.87-7.67l28.13,13.74l0.5,4.45l-24.74,16.21L265.58,36.19z"/>
			</g>
			<g>
				<path class="st71" d="M80.32,166.78h-9.46c-0.83,0-1.5-0.67-1.5-1.5s0.67-1.5,1.5-1.5h9.46c0.83,0,1.5,0.67,1.5,1.5
					S81.15,166.78,80.32,166.78z"/>
			</g>
			<g>
				<path class="st71" d="M74.01,153.76c-0.15,0-0.3-0.02-0.44-0.07l-44.59-13.76c-0.5-0.15-0.89-0.56-1.01-1.07
					s0.02-1.05,0.39-1.42l30.4-30.68c0.37-0.37,0.91-0.52,1.42-0.4c0.51,0.12,0.92,0.5,1.08,1l14.19,44.45
					c0.17,0.53,0.03,1.12-0.36,1.51C74.79,153.61,74.41,153.76,74.01,153.76z M32.23,137.8l39.48,12.19l-12.57-39.35L32.23,137.8z"
					/>
			</g>
			<g>
				<path class="st71" d="M34.71,134.65c-0.04,0-0.08,0-0.12,0c-0.44-0.04-0.84-0.27-1.1-0.63l-10.74-15.16
					c-0.43-0.6-0.35-1.42,0.17-1.94l15.34-15.05c0.53-0.52,1.38-0.57,1.97-0.12l14.37,11.07c0.34,0.26,0.55,0.66,0.58,1.09
					c0.03,0.43-0.13,0.85-0.43,1.16l-18.97,19.15C35.5,134.5,35.11,134.65,34.71,134.65z M25.94,118.17l8.97,12.66l16.51-16.67
					l-11.99-9.24L25.94,118.17z"/>
			</g>
			<g>
				<rect x="80.32" y="157.14" class="st71" width="11.04" height="11.04"/>
			</g>
			<g>
				<path class="st71" d="M85.84,158.64c-0.83,0-1.5-0.67-1.5-1.5v-9.18c0-0.83,0.67-1.5,1.5-1.5s1.5,0.67,1.5,1.5v9.18
					C87.34,157.97,86.67,158.64,85.84,158.64z"/>
			</g>
			<g>
				<path class="st71" d="M74.01,153.76c-0.38,0-0.77-0.15-1.06-0.44l-16.59-16.59c-0.59-0.59-0.59-1.54,0-2.12
					c0.59-0.59,1.54-0.59,2.12,0l16.59,16.59c0.59,0.59,0.59,1.54,0,2.12C74.78,153.62,74.4,153.76,74.01,153.76z"/>
			</g>
			<g>
				<path class="st71" d="M46.91,131.45c0,3.26,2.64,5.9,5.9,5.9c3.26,0,5.9-2.64,5.9-5.9c0-3.26-2.64-5.9-5.9-5.9
					C49.55,125.55,46.91,128.19,46.91,131.45"/>
			</g>
			<g>
				<polygon class="st72" points="446.59,241.27 515.56,197.82 497.24,168.73 478.57,180.5 489.11,160.46 458.68,144.45 
					450.99,159.07 450.99,142.76 416.61,142.76 416.61,224.42 415.34,226.83 416.61,227.5 416.61,235.85 429.5,235.85 436.8,247.44 
					444.86,242.36 445.77,242.84 				"/>
				<g>
					<g>
						<rect x="409.2" y="139.99" class="st73" width="34.38" height="93.09"/>
						<rect x="412.48" y="145.4" class="st74" width="27.82" height="10.82"/>
						<rect x="412.48" y="160.92" class="st75" width="27.82" height="10.82"/>
						<rect x="412.48" y="176.43" class="st76" width="27.82" height="10.82"/>
						<rect x="412.48" y="191.95" class="st77" width="27.82" height="10.82"/>
						<rect x="412.48" y="207.46" class="st78" width="27.82" height="10.82"/>
					</g>
					<g>
						
							<rect x="427.62" y="144.33" transform="matrix(0.885 0.4656 -0.4656 0.885 140.0233 -185.1521)" class="st73" width="34.38" height="93.09"/>
						
							<rect x="447.53" y="153.85" transform="matrix(0.885 0.4656 -0.4656 0.885 127.2183 -196.5311)" class="st79" width="27.82" height="10.82"/>
						
							<rect x="440.31" y="167.58" transform="matrix(0.885 0.4656 -0.4656 0.885 132.7803 -191.5889)" class="st80" width="27.82" height="10.82"/>
						
							<rect x="433.08" y="181.31" transform="matrix(0.885 0.4656 -0.4656 0.885 138.3422 -186.6466)" class="st81" width="27.82" height="10.82"/>
						
							<rect x="425.86" y="195.04" transform="matrix(0.885 0.4656 -0.4656 0.885 143.9042 -181.7044)" class="st82" width="27.82" height="10.82"/>
						
							<rect x="418.64" y="208.77" transform="matrix(0.885 0.4656 -0.4656 0.885 149.4662 -176.7622)" class="st83" width="27.82" height="10.82"/>
					</g>
					<g>
						
							<rect x="442.42" y="158.77" transform="matrix(0.533 0.8461 -0.8461 0.533 388.3349 -292.9963)" class="st73" width="34.38" height="93.09"/>
						
							<rect x="475.92" y="180.86" transform="matrix(0.533 0.8461 -0.8461 0.533 386.3403 -327.4577)" class="st84" width="27.82" height="10.82"/>
						
							<rect x="462.79" y="189.13" transform="matrix(0.533 0.8461 -0.8461 0.533 387.2065 -312.4896)" class="st85" width="27.82" height="10.82"/>
						
							<rect x="449.66" y="197.4" transform="matrix(0.533 0.8461 -0.8461 0.533 388.0721 -297.5214)" class="st86" width="27.82" height="10.82"/>
						
							<rect x="436.54" y="205.67" transform="matrix(0.533 0.8461 -0.8461 0.533 388.9403 -282.5536)" class="st87" width="27.82" height="10.82"/>
						
							<rect x="423.41" y="213.94" transform="matrix(0.533 0.8461 -0.8461 0.533 389.8075 -267.5857)" class="st88" width="27.82" height="10.82"/>
					</g>
					<path class="st89" d="M428.82,226.12c0,1.35-1.09,2.44-2.44,2.44c-1.35,0-2.44-1.09-2.44-2.44c0-1.35,1.09-2.44,2.44-2.44
						C427.73,223.68,428.82,224.77,428.82,226.12z"/>
				</g>
			</g>
			<g>
				
					<rect x="14.65" y="212.38" transform="matrix(0.9391 -0.3436 0.3436 0.9391 -82.0034 28.8517)" class="st90" width="51.51" height="66.82"/>
				<g>
					
						<rect x="12.35" y="211.26" transform="matrix(0.9391 -0.3436 0.3436 0.9391 -81.76 27.9949)" class="st12" width="51.51" height="66.82"/>
					<g>
						
							<rect x="21.77" y="218.25" transform="matrix(0.9391 -0.3436 0.3436 0.9391 -74.1679 21.4783)" class="st78" width="3.48" height="3.48"/>
						
							<rect x="25.04" y="217.06" transform="matrix(0.9391 -0.3436 0.3436 0.9391 -73.5578 22.5286)" class="st91" width="3.48" height="3.48"/>
						
							<rect x="28.31" y="215.86" transform="matrix(0.9391 -0.3436 0.3436 0.9391 -72.9478 23.5788)" class="st88" width="3.48" height="3.48"/>
						
							<rect x="31.58" y="214.66" transform="matrix(0.9391 -0.3436 0.3436 0.9391 -72.3378 24.6291)" class="st92" width="3.48" height="3.48"/>
					</g>
					<g>
						<g>
							<g>
								<path class="st90" d="M26.59,255.81l-1.01,36.67c0,0,0.26,1.53,1.89,1.53c1.28,0,1.56-0.77,1.71-1.36
									c0.15-0.57,0.56-34.2,0.59-36.86c0-0.11-0.02-0.22-0.05-0.33l-1.36-3.9c-0.05-0.15-0.26-0.14-0.3,0.01l-1.43,4.05
									C26.6,255.69,26.59,255.75,26.59,255.81z"/>
								<path class="st87" d="M25.7,255.19l-1.01,36.67c0,0,0.26,1.53,1.89,1.53c1.28,0,1.56-0.77,1.71-1.36
									c0.15-0.57,0.56-34.2,0.59-36.86c0-0.11-0.02-0.22-0.05-0.33l-1.36-3.9c-0.05-0.15-0.26-0.14-0.3,0.01l-1.43,4.05
									C25.71,255.07,25.7,255.13,25.7,255.19z"/>
							</g>
							<path class="st93" d="M28.86,254.96l-1.39-4.01c-0.05-0.15-0.26-0.14-0.3,0.01l-1.43,4.05"/>
							<path class="st87" d="M26.79,252.01l0.37-1.06c0.05-0.15,0.25-0.15,0.3-0.01l0.36,1.04
								C27.83,251.99,27.52,252.37,26.79,252.01z"/>
						</g>
						<g>
							<g>
								<path class="st90" d="M35.64,255.13l-7.82,35.84c0,0-0.03,1.55,1.57,1.85c1.26,0.24,1.67-0.46,1.94-1.01
									c0.25-0.53,6.92-33.49,7.44-36.1c0.02-0.11,0.02-0.22,0.01-0.33l-0.61-4.09c-0.02-0.15-0.23-0.19-0.3-0.05l-2.16,3.72
									C35.68,255.01,35.66,255.07,35.64,255.13z"/>
								<path class="st91" d="M34.88,254.35l-7.82,35.84c0,0-0.02,1.55,1.57,1.85c1.26,0.24,1.67-0.46,1.94-1.01
									c0.25-0.53,6.92-33.49,7.44-36.1c0.02-0.11,0.02-0.22,0.01-0.33l-0.61-4.09c-0.02-0.15-0.23-0.19-0.3-0.05l-2.16,3.72
									C34.92,254.23,34.89,254.29,34.88,254.35z"/>
							</g>
							<path class="st93" d="M38.03,254.72l-0.62-4.2c-0.02-0.15-0.23-0.19-0.3-0.05l-2.16,3.72"/>
							<path class="st91" d="M36.55,251.43l0.56-0.97c0.07-0.14,0.28-0.1,0.3,0.05l0.16,1.09C37.57,251.6,37.2,251.92,36.55,251.43z
								"/>
						</g>
						<g>
							<g>
								<path class="st90" d="M49.21,257.62l-15.24,33.36c0,0-0.35,1.51,1.14,2.14c1.18,0.5,1.73-0.1,2.11-0.58
									c0.36-0.46,13.87-31.26,14.93-33.7c0.04-0.1,0.07-0.21,0.08-0.32l0.27-4.13c0.01-0.15-0.18-0.23-0.28-0.11l-2.9,3.17
									C49.27,257.51,49.24,257.56,49.21,257.62z"/>
								<path class="st78" d="M48.63,256.7l-15.24,33.36c0,0-0.35,1.51,1.14,2.14c1.18,0.5,1.73-0.1,2.11-0.58
									c0.36-0.46,13.87-31.26,14.93-33.7c0.04-0.1,0.07-0.21,0.08-0.32l0.27-4.13c0.01-0.15-0.18-0.23-0.28-0.11l-2.9,3.17
									C48.69,256.59,48.66,256.64,48.63,256.7z"/>
							</g>
							<path class="st93" d="M51.63,257.72l0.28-4.24c0.01-0.15-0.18-0.23-0.28-0.11l-2.9,3.17"/>
							<path class="st78" d="M50.88,254.2l0.76-0.83c0.1-0.12,0.29-0.04,0.28,0.11l-0.07,1.1C51.84,254.59,51.42,254.81,50.88,254.2
								z"/>
						</g>
					</g>
				</g>
			</g>
		</g>
	</g>
	<g>
		<path class="st12" d="M82.44,522.75v12.56h-2.52v-8.17l-3.37,8.17h-1.91l-3.38-8.17v8.17h-2.52v-12.56h2.86l4,9.34l4-9.34H82.44z
			 M94.35,525.34v9.97h-2.54v-1.26c-0.32,0.43-0.75,0.77-1.28,1.03c-0.52,0.24-1.08,0.36-1.69,0.36c-0.78,0-1.47-0.16-2.07-0.49
			c-0.6-0.34-1.07-0.82-1.42-1.46c-0.34-0.65-0.5-1.42-0.5-2.3v-5.85h2.52v5.49c0,0.79,0.2,1.4,0.59,1.84
			c0.4,0.42,0.94,0.63,1.62,0.63c0.7,0,1.24-0.21,1.64-0.63c0.4-0.43,0.59-1.04,0.59-1.84v-5.49H94.35z M98.11,524.15
			c-0.46,0-0.83-0.14-1.13-0.41c-0.29-0.29-0.43-0.64-0.43-1.06c0-0.42,0.14-0.77,0.43-1.04c0.3-0.29,0.68-0.43,1.13-0.43
			c0.44,0,0.81,0.14,1.1,0.43c0.29,0.28,0.43,0.62,0.43,1.04c0,0.42-0.14,0.77-0.43,1.06C98.92,524.02,98.55,524.15,98.11,524.15z
			 M99.35,536.95c0,1.1-0.28,1.9-0.83,2.38c-0.54,0.49-1.32,0.74-2.34,0.74h-1.12v-2.14h0.72c0.38,0,0.65-0.08,0.81-0.23
			c0.16-0.14,0.23-0.38,0.23-0.72v-11.63h2.52V536.95z M111.11,530.11c0,0.36-0.02,0.68-0.07,0.97h-7.29
			c0.06,0.72,0.31,1.28,0.76,1.69s0.99,0.61,1.64,0.61c0.94,0,1.6-0.4,2-1.21h2.72c-0.29,0.96-0.84,1.75-1.66,2.38
			c-0.82,0.61-1.82,0.92-3.01,0.92c-0.96,0-1.82-0.21-2.59-0.63c-0.76-0.43-1.35-1.04-1.78-1.82c-0.42-0.78-0.63-1.68-0.63-2.7
			c0-1.03,0.21-1.94,0.63-2.72c0.42-0.78,1.01-1.38,1.76-1.8c0.76-0.42,1.63-0.63,2.61-0.63c0.95,0,1.79,0.2,2.54,0.61
			c0.76,0.41,1.34,0.99,1.75,1.75C110.9,528.28,111.11,529.14,111.11,530.11z M108.5,529.39c-0.01-0.65-0.25-1.16-0.7-1.55
			c-0.46-0.4-1.01-0.59-1.67-0.59c-0.62,0-1.15,0.19-1.58,0.58c-0.42,0.37-0.68,0.89-0.77,1.57H108.5z M115.47,526.89
			c0.32-0.53,0.74-0.94,1.26-1.24c0.53-0.3,1.13-0.45,1.8-0.45v2.65h-0.67c-0.79,0-1.39,0.19-1.8,0.56
			c-0.4,0.37-0.59,1.02-0.59,1.94v4.97h-2.52v-9.97h2.52V526.89z"/>
		<path class="st12" d="M135.13,529.01c0-1.24,0.28-2.34,0.83-3.31c0.56-0.98,1.33-1.75,2.29-2.29c0.97-0.55,2.06-0.83,3.26-0.83
			c1.4,0,2.63,0.36,3.69,1.08c1.06,0.72,1.79,1.72,2.21,2.99h-2.9c-0.29-0.6-0.7-1.05-1.22-1.35c-0.52-0.3-1.12-0.45-1.8-0.45
			c-0.73,0-1.39,0.17-1.96,0.52c-0.56,0.34-1.01,0.82-1.33,1.44c-0.31,0.62-0.47,1.36-0.47,2.2c0,0.83,0.16,1.56,0.47,2.2
			c0.32,0.62,0.77,1.11,1.33,1.46c0.58,0.34,1.23,0.5,1.96,0.5c0.68,0,1.28-0.15,1.8-0.45c0.53-0.31,0.94-0.77,1.22-1.37h2.9
			c-0.42,1.28-1.16,2.29-2.21,3.01c-1.04,0.71-2.27,1.06-3.69,1.06c-1.2,0-2.29-0.27-3.26-0.81c-0.96-0.55-1.72-1.31-2.29-2.29
			C135.41,531.35,135.13,530.25,135.13,529.01z M152.08,526.89c0.32-0.53,0.74-0.94,1.26-1.24c0.53-0.3,1.13-0.45,1.8-0.45v2.65
			h-0.67c-0.79,0-1.39,0.19-1.8,0.56c-0.4,0.37-0.59,1.02-0.59,1.94v4.97h-2.52v-9.97h2.52V526.89z M166.11,530.11
			c0,0.36-0.02,0.68-0.07,0.97h-7.29c0.06,0.72,0.31,1.28,0.76,1.69c0.44,0.41,0.99,0.61,1.64,0.61c0.94,0,1.6-0.4,2-1.21h2.72
			c-0.29,0.96-0.84,1.75-1.66,2.38c-0.82,0.61-1.82,0.92-3.01,0.92c-0.96,0-1.82-0.21-2.59-0.63c-0.76-0.43-1.35-1.04-1.78-1.82
			c-0.42-0.78-0.63-1.68-0.63-2.7c0-1.03,0.21-1.94,0.63-2.72c0.42-0.78,1.01-1.38,1.76-1.8s1.63-0.63,2.61-0.63
			c0.95,0,1.79,0.2,2.54,0.61c0.76,0.41,1.34,0.99,1.75,1.75C165.9,528.28,166.11,529.14,166.11,530.11z M163.5,529.39
			c-0.01-0.65-0.25-1.16-0.7-1.55c-0.46-0.4-1.01-0.59-1.67-0.59c-0.62,0-1.15,0.19-1.58,0.58c-0.42,0.37-0.68,0.89-0.77,1.57H163.5
			z M167.3,530.29c0-1.01,0.2-1.9,0.59-2.68c0.41-0.78,0.95-1.38,1.64-1.8c0.7-0.42,1.47-0.63,2.32-0.63c0.74,0,1.39,0.15,1.94,0.45
			c0.56,0.3,1.01,0.68,1.35,1.13v-1.42h2.54v9.97h-2.54v-1.46c-0.32,0.47-0.77,0.86-1.35,1.17c-0.56,0.3-1.22,0.45-1.96,0.45
			c-0.84,0-1.61-0.22-2.3-0.65c-0.68-0.43-1.23-1.04-1.64-1.82C167.49,532.22,167.3,531.31,167.3,530.29z M175.15,530.33
			c0-0.61-0.12-1.13-0.36-1.57c-0.24-0.44-0.56-0.78-0.97-1.01c-0.41-0.24-0.85-0.36-1.31-0.36c-0.47,0-0.9,0.11-1.3,0.34
			c-0.4,0.23-0.72,0.56-0.97,1.01c-0.24,0.43-0.36,0.95-0.36,1.55c0,0.6,0.12,1.13,0.36,1.58c0.25,0.44,0.58,0.79,0.97,1.03
			c0.41,0.24,0.84,0.36,1.3,0.36c0.47,0,0.91-0.11,1.31-0.34c0.41-0.24,0.73-0.58,0.97-1.01
			C175.02,531.47,175.15,530.94,175.15,530.33z M183.08,527.41v4.82c0,0.34,0.08,0.58,0.23,0.74c0.17,0.14,0.44,0.22,0.83,0.22h1.17
			v2.12h-1.58c-2.12,0-3.19-1.03-3.19-3.1v-4.81h-1.19v-2.07h1.19v-2.47h2.54v2.47h2.23v2.07H183.08z M188.4,524.15
			c-0.44,0-0.82-0.14-1.12-0.41c-0.29-0.29-0.43-0.64-0.43-1.06c0-0.42,0.14-0.77,0.43-1.04c0.3-0.29,0.67-0.43,1.12-0.43
			s0.81,0.14,1.1,0.43c0.3,0.28,0.45,0.62,0.45,1.04c0,0.42-0.15,0.77-0.45,1.06C189.21,524.02,188.85,524.15,188.4,524.15z
			 M189.64,525.34v9.97h-2.52v-9.97H189.64z M196.29,532.99l2.52-7.65h2.68l-3.69,9.97h-3.06l-3.67-9.97h2.7L196.29,532.99z
			 M202.26,530.29c0-1.01,0.2-1.9,0.59-2.68c0.41-0.78,0.95-1.38,1.64-1.8c0.7-0.42,1.47-0.63,2.32-0.63c0.74,0,1.39,0.15,1.94,0.45
			c0.56,0.3,1.01,0.68,1.35,1.13v-1.42h2.54v9.97h-2.54v-1.46c-0.32,0.47-0.77,0.86-1.35,1.17c-0.56,0.3-1.22,0.45-1.96,0.45
			c-0.84,0-1.61-0.22-2.3-0.65c-0.68-0.43-1.23-1.04-1.64-1.82C202.46,532.22,202.26,531.31,202.26,530.29z M210.11,530.33
			c0-0.61-0.12-1.13-0.36-1.57c-0.24-0.44-0.56-0.78-0.97-1.01c-0.41-0.24-0.85-0.36-1.31-0.36c-0.47,0-0.9,0.11-1.3,0.34
			c-0.4,0.23-0.72,0.56-0.97,1.01c-0.24,0.43-0.36,0.95-0.36,1.55c0,0.6,0.12,1.13,0.36,1.58c0.25,0.44,0.58,0.79,0.97,1.03
			c0.41,0.24,0.84,0.36,1.3,0.36c0.47,0,0.91-0.11,1.31-0.34c0.41-0.24,0.73-0.58,0.97-1.01
			C209.99,531.47,210.11,530.94,210.11,530.33z"/>
		<path class="st12" d="M230.13,529.01c0-1.24,0.28-2.34,0.83-3.31c0.56-0.98,1.33-1.75,2.29-2.29c0.97-0.55,2.06-0.83,3.26-0.83
			c1.4,0,2.63,0.36,3.69,1.08c1.06,0.72,1.79,1.72,2.21,2.99h-2.9c-0.29-0.6-0.7-1.05-1.22-1.35c-0.52-0.3-1.12-0.45-1.8-0.45
			c-0.73,0-1.39,0.17-1.96,0.52c-0.56,0.34-1.01,0.82-1.33,1.44c-0.31,0.62-0.47,1.36-0.47,2.2c0,0.83,0.16,1.56,0.47,2.2
			c0.32,0.62,0.77,1.11,1.33,1.46c0.58,0.34,1.23,0.5,1.96,0.5c0.68,0,1.28-0.15,1.8-0.45c0.53-0.31,0.94-0.77,1.22-1.37h2.9
			c-0.42,1.28-1.16,2.29-2.21,3.01c-1.04,0.71-2.27,1.06-3.69,1.06c-1.2,0-2.29-0.27-3.26-0.81c-0.96-0.55-1.72-1.31-2.29-2.29
			C230.41,531.35,230.13,530.25,230.13,529.01z M248.99,535.48c-0.96,0-1.82-0.21-2.59-0.63c-0.77-0.43-1.37-1.04-1.82-1.82
			c-0.43-0.78-0.65-1.68-0.65-2.7s0.22-1.92,0.67-2.7c0.46-0.78,1.07-1.38,1.85-1.8c0.78-0.43,1.65-0.65,2.61-0.65
			c0.96,0,1.83,0.22,2.61,0.65c0.78,0.42,1.39,1.02,1.84,1.8c0.46,0.78,0.68,1.68,0.68,2.7s-0.23,1.92-0.7,2.7
			c-0.46,0.78-1.08,1.39-1.87,1.82C250.83,535.27,249.96,535.48,248.99,535.48z M248.99,533.28c0.46,0,0.88-0.11,1.28-0.32
			c0.41-0.23,0.73-0.56,0.97-1.01c0.24-0.44,0.36-0.98,0.36-1.62c0-0.95-0.25-1.67-0.76-2.18c-0.49-0.52-1.1-0.77-1.82-0.77
			s-1.33,0.26-1.82,0.77c-0.48,0.5-0.72,1.23-0.72,2.18s0.23,1.68,0.7,2.2C247.67,533.03,248.27,533.28,248.99,533.28z
			 M258.56,521.99v13.32h-2.52v-13.32H258.56z M265.48,535.48c-0.96,0-1.82-0.21-2.59-0.63c-0.77-0.43-1.37-1.04-1.82-1.82
			c-0.43-0.78-0.65-1.68-0.65-2.7s0.22-1.92,0.67-2.7c0.46-0.78,1.07-1.38,1.85-1.8c0.78-0.43,1.65-0.65,2.61-0.65
			c0.96,0,1.83,0.22,2.61,0.65c0.78,0.42,1.39,1.02,1.84,1.8c0.46,0.78,0.68,1.68,0.68,2.7s-0.23,1.92-0.7,2.7
			c-0.46,0.78-1.08,1.39-1.87,1.82C267.32,535.27,266.45,535.48,265.48,535.48z M265.48,533.28c0.46,0,0.88-0.11,1.28-0.32
			c0.41-0.23,0.73-0.56,0.97-1.01c0.24-0.44,0.36-0.98,0.36-1.62c0-0.95-0.25-1.67-0.76-2.18c-0.49-0.52-1.1-0.77-1.82-0.77
			c-0.72,0-1.33,0.26-1.82,0.77c-0.48,0.5-0.72,1.23-0.72,2.18s0.23,1.68,0.7,2.2C264.15,533.03,264.76,533.28,265.48,533.28z
			 M284.91,525.2c1.22,0,2.21,0.38,2.95,1.13c0.76,0.74,1.13,1.79,1.13,3.13v5.85h-2.52v-5.51c0-0.78-0.2-1.37-0.59-1.78
			c-0.4-0.42-0.94-0.63-1.62-0.63c-0.68,0-1.23,0.21-1.64,0.63c-0.4,0.41-0.59,1-0.59,1.78v5.51h-2.52v-5.51
			c0-0.78-0.2-1.37-0.59-1.78c-0.4-0.42-0.94-0.63-1.62-0.63c-0.7,0-1.25,0.21-1.66,0.63c-0.4,0.41-0.59,1-0.59,1.78v5.51h-2.52
			v-9.97h2.52v1.21c0.32-0.42,0.74-0.75,1.24-0.99c0.52-0.24,1.08-0.36,1.69-0.36c0.78,0,1.48,0.17,2.09,0.5
			c0.61,0.32,1.09,0.79,1.42,1.4c0.32-0.58,0.79-1.04,1.4-1.39C283.52,525.37,284.19,525.2,284.91,525.2z M293.91,526.8
			c0.32-0.48,0.77-0.87,1.33-1.17c0.58-0.3,1.23-0.45,1.96-0.45c0.85,0,1.62,0.21,2.3,0.63c0.7,0.42,1.24,1.02,1.64,1.8
			c0.41,0.77,0.61,1.66,0.61,2.68c0,1.02-0.2,1.93-0.61,2.72c-0.4,0.78-0.94,1.39-1.64,1.82c-0.68,0.43-1.45,0.65-2.3,0.65
			c-0.74,0-1.4-0.14-1.96-0.43c-0.55-0.3-1-0.68-1.33-1.15v1.42h-2.52v-13.32h2.52V526.8z M299.18,530.29c0-0.6-0.13-1.12-0.38-1.55
			c-0.24-0.44-0.56-0.78-0.97-1.01c-0.4-0.23-0.83-0.34-1.3-0.34c-0.46,0-0.89,0.12-1.3,0.36c-0.4,0.23-0.72,0.56-0.97,1.01
			c-0.24,0.44-0.36,0.97-0.36,1.57s0.12,1.12,0.36,1.57c0.25,0.44,0.58,0.79,0.97,1.03c0.41,0.23,0.84,0.34,1.3,0.34
			c0.47,0,0.9-0.12,1.3-0.36c0.41-0.24,0.73-0.58,0.97-1.03C299.05,531.43,299.18,530.9,299.18,530.29z M304.86,524.15
			c-0.44,0-0.82-0.14-1.12-0.41c-0.29-0.29-0.43-0.64-0.43-1.06c0-0.42,0.14-0.77,0.43-1.04c0.3-0.29,0.67-0.43,1.12-0.43
			s0.81,0.14,1.1,0.43c0.3,0.28,0.45,0.62,0.45,1.04c0,0.42-0.15,0.77-0.45,1.06C305.67,524.02,305.31,524.15,304.86,524.15z
			 M306.11,525.34v9.97h-2.52v-9.97H306.11z M307.95,530.29c0-1.01,0.2-1.9,0.59-2.68c0.41-0.78,0.95-1.38,1.64-1.8
			c0.7-0.42,1.47-0.63,2.32-0.63c0.74,0,1.39,0.15,1.94,0.45c0.56,0.3,1.01,0.68,1.35,1.13v-1.42h2.54v9.97h-2.54v-1.46
			c-0.32,0.47-0.77,0.86-1.35,1.17c-0.56,0.3-1.22,0.45-1.96,0.45c-0.84,0-1.61-0.22-2.3-0.65c-0.68-0.43-1.23-1.04-1.64-1.82
			C308.15,532.22,307.95,531.31,307.95,530.29z M315.8,530.33c0-0.61-0.12-1.13-0.36-1.57c-0.24-0.44-0.56-0.78-0.97-1.01
			c-0.41-0.24-0.85-0.36-1.31-0.36s-0.9,0.11-1.3,0.34c-0.4,0.23-0.72,0.56-0.97,1.01c-0.24,0.43-0.36,0.95-0.36,1.55
			c0,0.6,0.12,1.13,0.36,1.58c0.25,0.44,0.58,0.79,0.97,1.03c0.41,0.24,0.84,0.36,1.3,0.36c0.47,0,0.91-0.11,1.31-0.34
			c0.41-0.24,0.73-0.58,0.97-1.01C315.68,531.47,315.8,530.94,315.8,530.33z M326.32,525.2c1.19,0,2.15,0.38,2.88,1.13
			c0.73,0.74,1.1,1.79,1.1,3.13v5.85h-2.52v-5.51c0-0.79-0.2-1.4-0.59-1.82c-0.4-0.43-0.94-0.65-1.62-0.65
			c-0.7,0-1.25,0.22-1.66,0.65c-0.4,0.42-0.59,1.03-0.59,1.82v5.51h-2.52v-9.97h2.52v1.24c0.34-0.43,0.76-0.77,1.28-1.01
			C325.12,525.32,325.7,525.2,326.32,525.2z M332.05,530.29c0-1.01,0.2-1.9,0.59-2.68c0.41-0.78,0.95-1.38,1.64-1.8
			c0.7-0.42,1.47-0.63,2.32-0.63c0.74,0,1.39,0.15,1.94,0.45c0.56,0.3,1.01,0.68,1.35,1.13v-1.42h2.54v9.97h-2.54v-1.46
			c-0.32,0.47-0.77,0.86-1.35,1.17c-0.56,0.3-1.22,0.45-1.96,0.45c-0.84,0-1.61-0.22-2.3-0.65c-0.68-0.43-1.23-1.04-1.64-1.82
			C332.24,532.22,332.05,531.31,332.05,530.29z M339.89,530.33c0-0.61-0.12-1.13-0.36-1.57c-0.24-0.44-0.56-0.78-0.97-1.01
			c-0.41-0.24-0.85-0.36-1.31-0.36c-0.47,0-0.9,0.11-1.3,0.34c-0.4,0.23-0.72,0.56-0.97,1.01c-0.24,0.43-0.36,0.95-0.36,1.55
			c0,0.6,0.12,1.13,0.36,1.58c0.25,0.44,0.58,0.79,0.97,1.03c0.41,0.24,0.84,0.36,1.3,0.36c0.47,0,0.91-0.11,1.31-0.34
			c0.41-0.24,0.73-0.58,0.97-1.01C339.77,531.47,339.89,530.94,339.89,530.33z"/>
		<path class="st12" d="M365.08,535.44c-0.88,0-1.67-0.15-2.38-0.45c-0.7-0.3-1.25-0.73-1.66-1.3c-0.41-0.56-0.62-1.23-0.63-2h2.7
			c0.04,0.52,0.22,0.92,0.54,1.22c0.34,0.3,0.79,0.45,1.37,0.45c0.59,0,1.05-0.14,1.39-0.41c0.34-0.29,0.5-0.66,0.5-1.12
			c0-0.37-0.11-0.68-0.34-0.92s-0.52-0.43-0.86-0.56c-0.34-0.14-0.8-0.3-1.4-0.47c-0.82-0.24-1.48-0.47-2-0.7
			c-0.5-0.24-0.94-0.59-1.31-1.06c-0.36-0.48-0.54-1.12-0.54-1.91c0-0.74,0.19-1.39,0.56-1.94c0.37-0.55,0.89-0.97,1.57-1.26
			c0.67-0.3,1.44-0.45,2.3-0.45c1.3,0,2.35,0.32,3.15,0.95c0.82,0.62,1.27,1.5,1.35,2.63h-2.77c-0.02-0.43-0.21-0.79-0.56-1.06
			c-0.34-0.29-0.79-0.43-1.35-0.43c-0.49,0-0.89,0.13-1.19,0.38c-0.29,0.25-0.43,0.62-0.43,1.1c0,0.34,0.11,0.62,0.32,0.85
			c0.23,0.22,0.5,0.4,0.83,0.54c0.34,0.13,0.8,0.29,1.4,0.47c0.82,0.24,1.48,0.48,2,0.72c0.52,0.24,0.96,0.6,1.33,1.08
			c0.37,0.48,0.56,1.11,0.56,1.89c0,0.67-0.17,1.3-0.52,1.87s-0.86,1.04-1.53,1.39C366.8,535.27,366,535.44,365.08,535.44z
			 M376.14,535.48c-0.96,0-1.82-0.21-2.59-0.63c-0.77-0.43-1.37-1.04-1.82-1.82c-0.43-0.78-0.65-1.68-0.65-2.7s0.22-1.92,0.67-2.7
			c0.46-0.78,1.07-1.38,1.85-1.8c0.78-0.43,1.65-0.65,2.61-0.65s1.83,0.22,2.61,0.65c0.78,0.42,1.39,1.02,1.84,1.8
			c0.46,0.78,0.68,1.68,0.68,2.7s-0.23,1.92-0.7,2.7c-0.46,0.78-1.08,1.39-1.87,1.82C377.99,535.27,377.11,535.48,376.14,535.48z
			 M376.14,533.28c0.46,0,0.88-0.11,1.28-0.32c0.41-0.23,0.73-0.56,0.97-1.01c0.24-0.44,0.36-0.98,0.36-1.62
			c0-0.95-0.25-1.67-0.76-2.18c-0.49-0.52-1.1-0.77-1.82-0.77s-1.33,0.26-1.82,0.77c-0.48,0.5-0.72,1.23-0.72,2.18
			s0.23,1.68,0.7,2.2C374.82,533.03,375.42,533.28,376.14,533.28z M388.71,525.2c1.19,0,2.15,0.38,2.88,1.13
			c0.73,0.74,1.1,1.79,1.1,3.13v5.85h-2.52v-5.51c0-0.79-0.2-1.4-0.59-1.82c-0.4-0.43-0.94-0.65-1.62-0.65
			c-0.7,0-1.25,0.22-1.66,0.65c-0.4,0.42-0.59,1.03-0.59,1.82v5.51h-2.52v-9.97h2.52v1.24c0.34-0.43,0.76-0.77,1.28-1.01
			C387.52,525.32,388.09,525.2,388.71,525.2z M384.95,524.39c0.11-0.79,0.35-1.38,0.74-1.76c0.4-0.4,0.89-0.59,1.49-0.59
			c0.25,0,0.47,0.04,0.67,0.13c0.19,0.07,0.41,0.18,0.65,0.32c0.36,0.23,0.66,0.34,0.9,0.34c0.44,0,0.7-0.26,0.77-0.77h1.35
			c-0.11,0.79-0.36,1.39-0.76,1.78c-0.38,0.38-0.88,0.58-1.48,0.58c-0.25,0-0.47-0.04-0.67-0.11c-0.19-0.08-0.41-0.2-0.65-0.34
			c-0.35-0.24-0.65-0.36-0.9-0.36c-0.44,0-0.71,0.26-0.79,0.79H384.95z M394.44,530.29c0-1.01,0.2-1.9,0.59-2.68
			c0.41-0.78,0.95-1.38,1.64-1.8c0.7-0.42,1.47-0.63,2.32-0.63c0.74,0,1.39,0.15,1.94,0.45c0.56,0.3,1.01,0.68,1.35,1.13v-1.42h2.54
			v9.97h-2.54v-1.46c-0.32,0.47-0.77,0.86-1.35,1.17c-0.56,0.3-1.22,0.45-1.96,0.45c-0.84,0-1.61-0.22-2.3-0.65
			c-0.68-0.43-1.23-1.04-1.64-1.82C394.64,532.22,394.44,531.31,394.44,530.29z M402.29,530.33c0-0.61-0.12-1.13-0.36-1.57
			c-0.24-0.44-0.56-0.78-0.97-1.01c-0.41-0.24-0.85-0.36-1.31-0.36c-0.47,0-0.9,0.11-1.3,0.34c-0.4,0.23-0.72,0.56-0.97,1.01
			c-0.24,0.43-0.36,0.95-0.36,1.55c0,0.6,0.12,1.13,0.36,1.58c0.25,0.44,0.58,0.79,0.97,1.03c0.41,0.24,0.84,0.36,1.3,0.36
			c0.47,0,0.91-0.11,1.31-0.34c0.41-0.24,0.73-0.58,0.97-1.01C402.17,531.47,402.29,530.94,402.29,530.33z M406.64,530.29
			c0-1.01,0.2-1.9,0.59-2.68c0.41-0.78,0.96-1.38,1.66-1.8c0.7-0.42,1.47-0.63,2.32-0.63c0.65,0,1.27,0.14,1.85,0.43
			c0.59,0.28,1.06,0.65,1.4,1.12v-4.73h2.56v13.32h-2.56v-1.48c-0.31,0.49-0.75,0.89-1.31,1.19c-0.56,0.3-1.22,0.45-1.96,0.45
			c-0.84,0-1.61-0.22-2.3-0.65c-0.7-0.43-1.25-1.04-1.66-1.82C406.84,532.22,406.64,531.31,406.64,530.29z M414.49,530.33
			c0-0.61-0.12-1.13-0.36-1.57c-0.24-0.44-0.56-0.78-0.97-1.01c-0.41-0.24-0.85-0.36-1.31-0.36c-0.47,0-0.9,0.11-1.3,0.34
			c-0.4,0.23-0.72,0.56-0.97,1.01c-0.24,0.43-0.36,0.95-0.36,1.55c0,0.6,0.12,1.13,0.36,1.58c0.25,0.44,0.58,0.79,0.97,1.03
			c0.41,0.24,0.84,0.36,1.3,0.36c0.47,0,0.91-0.11,1.31-0.34c0.41-0.24,0.73-0.58,0.97-1.01
			C414.37,531.47,414.49,530.94,414.49,530.33z M423.92,535.48c-0.96,0-1.82-0.21-2.59-0.63c-0.77-0.43-1.37-1.04-1.82-1.82
			c-0.43-0.78-0.65-1.68-0.65-2.7s0.22-1.92,0.67-2.7c0.46-0.78,1.07-1.38,1.85-1.8c0.78-0.43,1.65-0.65,2.61-0.65
			s1.83,0.22,2.61,0.65c0.78,0.42,1.39,1.02,1.84,1.8c0.46,0.78,0.68,1.68,0.68,2.7s-0.23,1.92-0.7,2.7
			c-0.46,0.78-1.08,1.39-1.87,1.82C425.76,535.27,424.89,535.48,423.92,535.48z M423.92,533.28c0.46,0,0.88-0.11,1.28-0.32
			c0.41-0.23,0.73-0.56,0.97-1.01c0.24-0.44,0.36-0.98,0.36-1.62c0-0.95-0.25-1.67-0.76-2.18c-0.49-0.52-1.1-0.77-1.82-0.77
			s-1.33,0.26-1.82,0.77c-0.48,0.5-0.72,1.23-0.72,2.18s0.23,1.68,0.7,2.2C422.6,533.03,423.2,533.28,423.92,533.28z M433.49,526.89
			c0.32-0.53,0.74-0.94,1.26-1.24c0.53-0.3,1.13-0.45,1.8-0.45v2.65h-0.67c-0.79,0-1.39,0.19-1.8,0.56
			c-0.4,0.37-0.59,1.02-0.59,1.94v4.97h-2.52v-9.97h2.52V526.89z M437.6,530.29c0-1.01,0.2-1.9,0.59-2.68
			c0.41-0.78,0.95-1.38,1.64-1.8c0.7-0.42,1.47-0.63,2.32-0.63c0.74,0,1.39,0.15,1.94,0.45c0.56,0.3,1.01,0.68,1.35,1.13v-1.42h2.54
			v9.97h-2.54v-1.46c-0.32,0.47-0.77,0.86-1.35,1.17c-0.56,0.3-1.22,0.45-1.96,0.45c-0.84,0-1.61-0.22-2.3-0.65
			c-0.68-0.43-1.23-1.04-1.64-1.82C437.79,532.22,437.6,531.31,437.6,530.29z M445.44,530.33c0-0.61-0.12-1.13-0.36-1.57
			c-0.24-0.44-0.56-0.78-0.97-1.01c-0.41-0.24-0.85-0.36-1.31-0.36c-0.47,0-0.9,0.11-1.3,0.34c-0.4,0.23-0.72,0.56-0.97,1.01
			c-0.24,0.43-0.36,0.95-0.36,1.55c0,0.6,0.12,1.13,0.36,1.58c0.25,0.44,0.58,0.79,0.97,1.03c0.41,0.24,0.84,0.36,1.3,0.36
			c0.47,0,0.91-0.11,1.31-0.34c0.41-0.24,0.73-0.58,0.97-1.01C445.32,531.47,445.44,530.94,445.44,530.33z"/>
		<circle class="st94" cx="61.5" cy="529.31" r="2"/>
		<circle class="st94" cx="127.5" cy="529.31" r="2"/>
		<circle class="st94" cx="222.5" cy="529.31" r="2"/>
		<circle class="st94" cx="352.5" cy="529.31" r="2"/>
		<circle class="st94" cx="456.5" cy="529.31" r="2"/>
	</g>
</g>
</svg>
