<?xml version="1.0" encoding="utf-8"?>
<!-- Generator: Adobe Illustrator 24.1.0, SVG Export Plug-In . SVG Version: 6.00 Build 0)  -->
<svg version="1.1" id="Capa_1" xmlns="http://www.w3.org/2000/svg" xmlns:xlink="http://www.w3.org/1999/xlink" x="0px" y="0px"
	 viewBox="0 0 132 30" style="enable-background:new 0 0 132 30;" xml:space="preserve">
<style type="text/css">
	.st0{fill:#4EAD33;}
	.st1{fill:#235426;}
	.st2{fill:#00772C;}
	.st3{fill:#8F201D;}
	.st4{fill:#400900;}
	.st5{fill:#A91917;}
	.st6{fill:#6A140F;}
	.st7{fill:#981717;}
	.st8{fill:#881814;}
	.st9{fill:#861A1A;}
	.st10{fill:#E83F40;}
	.st11{fill:#BD1218;}
	.st12{fill:#FFFFFF;}
	.st13{fill:#AED5DE;}
	.st14{fill:#27273B;}
	.st15{clip-path:url(#SVGID_2_);}
	.st16{fill:#009DB9;}
	.st17{fill:#E31223;}
	.st18{clip-path:url(#SVGID_4_);}
	.st19{fill:#921B1B;}
	.st20{fill:none;}
	.st21{fill:#F6A000;}
	.st22{fill:#E1EDD1;}
	.st23{fill:#9AC31C;stroke:#4EAD33;stroke-width:2;stroke-miterlimit:10;}
	.st24{fill:#99C21E;}
	.st25{fill:#DBE8BD;}
	.st26{opacity:0.3;fill:#068839;}
	.st27{fill:#C5D585;}
	.st28{fill:#459034;}
	.st29{fill:#FDCE64;}
	.st30{fill:#589832;}
	.st31{fill:#EED592;}
	.st32{fill:#63A530;}
	.st33{fill:#161D1F;}
	.st34{fill:#A91314;}
	.st35{fill:#96C127;}
	.st36{clip-path:url(#SVGID_6_);}
	.st37{fill:#AE193A;}
	.st38{fill:#732614;}
	.st39{fill:#FBBE5B;}
	.st40{opacity:0.45;fill:#F6A000;}
	.st41{opacity:0.45;fill:#F08300;}
	.st42{opacity:0.5;fill:#F6A000;}
	.st43{fill:#C6BC31;}
	.st44{fill:#ABB03F;}
	.st45{fill:#ABB139;}
	.st46{fill:#B98F2B;}
	.st47{fill:#96962E;}
	.st48{fill:#9AC31C;}
	.st49{opacity:0.45;fill:#4EAD33;}
	.st50{opacity:0.45;fill:#00772C;}
	.st51{opacity:0.5;fill:#4EAD33;}
	.st52{fill:#EE7818;}
	.st53{fill:#D35F05;}
	.st54{clip-path:url(#SVGID_8_);}
	.st55{opacity:0.4;fill:#4EAD33;}
	.st56{fill:#0B1825;}
	.st57{fill:#112134;}
	.st58{fill:#E3A486;}
	.st59{fill:#D07D42;}
	.st60{fill:#F7D0BF;}
	.st61{fill:#F2B39E;}
	.st62{fill:#F19816;}
	.st63{fill:#EF8B02;}
	.st64{fill:#F1AD2C;}
	.st65{fill:#EE8B96;}
	.st66{fill:#1D1D1B;}
	.st67{fill:#232F3B;}
	.st68{fill:none;stroke:#F0AF25;stroke-miterlimit:10;}
	.st69{fill:#FFFFFF;stroke:#112134;stroke-linecap:round;stroke-linejoin:round;stroke-miterlimit:10;}
	.st70{fill:#F59906;}
	.st71{fill:#009EE2;}
	.st72{opacity:0.1;fill:#1F1F20;}
	.st73{fill:#F5F5F5;}
	.st74{fill:#F4EBBA;}
	.st75{fill:#EFD497;}
	.st76{fill:#F4D590;}
	.st77{fill:#F4CB6E;}
	.st78{fill:#F4BA45;}
	.st79{fill:#BDF1F4;}
	.st80{fill:#98F4F4;}
	.st81{fill:#62EDE9;}
	.st82{fill:#37E2D6;}
	.st83{fill:#17CEBC;}
	.st84{fill:#F4B0BE;}
	.st85{fill:#F48CA5;}
	.st86{fill:#EA688D;}
	.st87{fill:#E2477A;}
	.st88{fill:#D62766;}
	.st89{fill:#E6E6E6;}
	.st90{opacity:0.1;fill:#2A2B2D;}
	.st91{fill:#00C1C6;}
	.st92{fill:#1F1F20;}
	.st93{fill:#F9E7D0;}
	.st94{fill:#4CD4D7;}
	.st95{fill:none;stroke:#4CD4D7;stroke-width:2;stroke-linecap:round;stroke-linejoin:round;}
	.st96{clip-path:url(#SVGID_10_);}
	.st97{fill:#1ECAD3;}
	.st98{fill:#00AEEA;}
	.st99{fill:#050607;}
	.st100{fill:#E1E3E8;}
	.st101{fill:#E0E3E8;}
	.st102{fill:#CFEAF5;}
	.st103{fill:#96D4EC;}
	.st104{fill:#D0EAF5;}
	.st105{fill:#FAC87B;}
	.st106{fill:#FAC97C;}
	.st107{fill:#95D4EC;}
	.st108{fill:#0A0F10;}
	.st109{fill:#03090B;}
	.st110{clip-path:url(#SVGID_12_);}
	.st111{fill:#EB6376;}
	.st112{fill:#68BDEB;}
	.st113{fill:#F18776;}
	.st114{fill:#77C8D6;}
	.st115{fill:#F6AE28;}
	.st116{fill:#EFAA2D;}
	.st117{fill:#CDCBCB;}
	.st118{fill:#797979;}
	.st119{fill:#6E6E6E;}
	.st120{fill:#555454;}
	.st121{fill:#6F6F6F;}
	.st122{fill:#929292;}
	.st123{fill:#006FB9;}
	.st124{fill:#E7C82F;}
	.st125{fill:#E34B24;}
	.st126{fill:#7D79D9;}
	.st127{fill-rule:evenodd;clip-rule:evenodd;fill:#7D79D9;}
	.st128{clip-path:url(#SVGID_14_);}
	.st129{opacity:0.1;fill:#1F1F20;enable-background:new    ;}
	.st130{opacity:0.1;fill:#2A2B2D;enable-background:new    ;}
	.st131{fill:#EAEAEA;}
</style>
<g>
	<g>
		<path class="st12" d="M32.03,26.77c-3.14,0-5.79-2.35-6.63-5.57c-0.14-0.52-0.59-0.9-1.13-0.9h-1.55c0.57,5.03,4.53,8.93,9.3,8.93
			c2.64,0,5.14-1.21,6.91-3.3l0,2.02c0,0.6,0.4,1.15,0.99,1.26c0.79,0.15,1.48-0.45,1.48-1.21v-7.7h-2.57
			C38.3,23.97,35.45,26.77,32.03,26.77z"/>
		<path class="st12" d="M32.03,11.33c3.42,0,6.27,2.8,6.81,6.46h2.57v-7.65c0-0.6-0.4-1.15-0.99-1.26
			c-0.79-0.15-1.48,0.45-1.48,1.21v2.07c-1.76-2.09-4.27-3.3-6.91-3.3c-4.78,0-8.73,3.9-9.3,8.93h1.55c0.54,0,0.99-0.37,1.13-0.9
			C26.24,13.68,28.89,11.33,32.03,11.33z"/>
	</g>
	<g>
		<path class="st12" d="M56.78,11.33c0.68,0,1.23-0.55,1.23-1.23c0-0.68-0.55-1.23-1.23-1.23c-3,0-5.52,1.02-7.23,2.9v-1.67
			c0-0.68-0.55-1.23-1.23-1.23s-1.23,0.55-1.23,1.23v7.7h2.53C50.04,13.78,52.71,11.33,56.78,11.33z"/>
		<path class="st12" d="M47.08,28.01c0,0.68,0.55,1.23,1.23,1.23s1.23-0.55,1.23-1.23v-7.7h-2.47V28.01z"/>
	</g>
	<g>
		<path class="st12" d="M68.59,26.77c-3.14,0-5.79-2.36-6.63-5.57c-0.14-0.52-0.59-0.9-1.13-0.9h-1.55c0.57,5.03,4.53,8.93,9.3,8.93
			c4.78,0,8.73-3.9,9.3-8.93h-2.5C74.86,23.97,72.02,26.77,68.59,26.77z"/>
		<path class="st12" d="M68.59,11.33c3.42,0,6.27,2.8,6.81,6.46h2.5c-0.57-5.03-4.53-8.93-9.3-8.93c-4.78,0-8.73,3.9-9.3,8.93h1.55
			c0.54,0,0.99-0.37,1.13-0.9C62.8,13.68,65.45,11.33,68.59,11.33z"/>
	</g>
	<g>
		<path class="st12" d="M106.16,28.07l0,0.06c0.03,0.65,0.56,1.15,1.21,1.15c0.34,0,0.65-0.13,0.88-0.38
			c0.23-0.24,0.35-0.56,0.33-0.9v-7.7h-2.46L106.16,28.07z"/>
		<path class="st12" d="M94.09,22.88c0.01,1.72,0.02,3.44,0.02,5.19l0,0.06c0.03,0.65,0.56,1.15,1.21,1.15
			c0.34,0,0.65-0.13,0.88-0.38c0.23-0.24,0.35-0.56,0.33-0.9v-7.7h-2.46C94.08,21.17,94.08,22.03,94.09,22.88z"/>
		<path class="st12" d="M82.02,28.03c0,0.67,0.54,1.21,1.26,1.21c0.67,0,1.21-0.54,1.21-1.23v-7.7h-2.47V28.03z"/>
		<path class="st12" d="M84.49,16.89c0-3.07,2.15-5.56,4.79-5.56c2.64,0,4.79,2.5,4.79,5.56v0.81c0,0.03,0,0.06,0,0.08h2.47v-0.9
			c0-3.07,2.15-5.56,4.79-5.56c2.64,0,4.79,2.5,4.79,5.57l0,0.9h2.47v-0.9c0-2.58-1.11-5.14-2.88-6.66
			c-1.31-1.12-2.88-1.6-4.44-1.37c-4.24,0.64-5.36,2.75-5.83,3.81c-0.01-0.02-0.02-0.05-0.04-0.08c-1.18-2.48-3.24-3.74-6.12-3.74
			c-1.78,0-3.47,0.71-4.79,1.97v-0.74c0-0.68-0.55-1.23-1.23-1.23s-1.23,0.55-1.23,1.23v7.7h2.47V16.89z"/>
	</g>
	<g>
		<path class="st12" d="M122.01,11.33c3.42,0,6.27,2.8,6.81,6.46h2.57v-7.65c0-0.6-0.4-1.15-0.99-1.26
			c-0.79-0.15-1.48,0.45-1.48,1.21v2.07c-1.76-2.09-4.27-3.3-6.91-3.3c-4.78,0-8.73,3.9-9.3,8.93h1.55c0.54,0,0.99-0.37,1.13-0.9
			C116.22,13.68,118.87,11.33,122.01,11.33z"/>
		<path class="st12" d="M122.01,26.77c-3.14,0-5.79-2.36-6.63-5.57c-0.14-0.52-0.59-0.9-1.13-0.9h-1.55
			c0.57,5.03,4.53,8.93,9.3,8.93c2.64,0,5.14-1.21,6.91-3.3v2.02c0,0.6,0.4,1.15,0.99,1.26c0.79,0.15,1.48-0.45,1.48-1.21v-7.7
			h-2.57C128.28,23.97,125.44,26.77,122.01,26.77z"/>
	</g>
	<circle class="st12" cx="68.59" cy="19.05" r="2.09"/>
	<g>
		<path class="st12" d="M10.54,13.64c-3.84-1.45-7.46-2.81-7.46-5.17c0-2.92,3.11-5.29,6.92-5.29c3.52,0,6.47,2.01,6.88,4.68
			c0.09,0.6,0.59,1.04,1.18,1.04l0.07,0c0.26,0,0.51-0.07,0.72-0.22c0.37-0.27,0.55-0.72,0.48-1.16c-0.58-3.88-4.59-6.81-9.33-6.81
			c-5.18,0-9.4,3.48-9.4,7.77c0.02,4.18,5.12,6.09,9.61,7.79c1.36,0.51,2.69,1.02,3.85,1.56h4.5
			C16.68,15.96,13.48,14.75,10.54,13.64z"/>
		<path class="st12" d="M17.07,21.53c0,2.87-3.26,5.29-7.12,5.29c-3.56,0-6.67-2.06-7.08-4.68c-0.09-0.6-0.55-1.03-1.09-1.03H1.71
			c-0.33,0-0.63,0.16-0.84,0.42c-0.21,0.27-0.3,0.64-0.25,0.99c0.61,3.86,4.62,6.77,9.32,6.77c5.1,0,9.4-3.56,9.4-7.76
			c0-0.42-0.04-0.81-0.13-1.19h-2.45C16.96,20.71,17.07,21.1,17.07,21.53z"/>
	</g>
</g>
</svg>
